<mxfile host="app.diagrams.net" modified="2024-06-08T08:14:18.463Z" agent="Mozilla/5.0 (Windows NT 10.0; Win64; x64) AppleWebKit/537.36 (KHTML, like Gecko) Chrome/125.0.0.0 Safari/537.36" etag="92WdNmK-hdV_cTeypq-V" version="24.5.2" type="device">
  <diagram name="Page-1" id="LxQKVClqcg1zM_bCVukJ">
    <mxGraphModel dx="1035" dy="591" grid="0" gridSize="10" guides="1" tooltips="1" connect="1" arrows="1" fold="1" page="1" pageScale="1" pageWidth="850" pageHeight="1100" math="0" shadow="0">
      <root>
        <mxCell id="0" />
        <mxCell id="1" parent="0" />
        <mxCell id="y9x0vxbRjsKLianGs3dF-1" value="" style="shape=image;verticalLabelPosition=bottom;labelBackgroundColor=default;verticalAlign=top;aspect=fixed;imageAspect=0;image=data:image/png,iVBORw0KGgoAAAANSUhEUgAAAoAAAAHICAIAAABRTMzoAAAgAElEQVR4Aex9B0BVV7a2ceb/538TFUxm3owlAZN5k5lkEmtijCZgYktMImKMig17p1iwoFKMokbBLsUuoNhAxE5HKbeAJVaKCoiKwqWXe8/e539r7XMPGAnRRODey74inHva3vtba69vr7VbC5F/OAIcAY4AR4AjwBFodARaNHqKPEGOAEeAI8AR4AhwBEROwFwJOAIcAY4AR4Aj0AQIcAJuAtB5khwBjgBHgCPAEeAEzHWAI8AR4AhwBDgCTYAAJ+AmAJ0nyRHgCHAEOAIcAU7AXAc4AhwBjgBHgCPQBAhwAm4C0HmSHAGOAEeAI8AR4ATMdYAjwBHgCHAEOAJNgAAn4CYAnSfJEeAIcAQ4AhwBTsBcBzgCHAGOAEeAI9AECHACbgLQeZIcAY4AR4AjwBHgBMx1gCPAEeAIcAQ4Ak2AACfgJgCdJ8kR4AhwBDgCHAFOwFwHOAIcAY4AR4Aj0AQIcAJuAtB5khwBjgBHgCPAEeAEzHWAI8AR4AhwBDgCTYAAJ+AmAJ0nyRHgCHAEOAIcAU7AXAc4AhwBjgBHgCPQBAhwAm4C0HmSHAGOAEeAI8AR4ATMdYAjwBHgCHAEOAJNgAAn4CYAnSfJEeAIcAQ4AhwBTsBcBzgCHAGOAEeAI9AECHACbgLQeZIcAY4AR4AjwBHgBMx1gCPAEeAIcAQ4Ak2AACfgJgCdJ8kR4AhwBDgCHAFOwFwHOAIcAY4AR4Aj0AQIcAJuAtB5khwBjgBHgCPAEeAEzHWAI8AR4AhwBDgCTYAAJ+AmAJ0nyRHgCHAEOAIcAU7AXAc4AhwBjgBHgCPQBAhwAm4C0HmSHAGOAEeAI8AR4ATMdYAjwBHgCHAEOAJNgAAn4CYAnSfJEeAIcAQ4AhwBTsBcBzgCHAGOAEeAI9AECHACbgLQeZIcAY4AR4AjwBHgBMx1gCPAEeAIcAQ4Ak2AACfgJgCdJ8kR4AhwBDgCHAFOwFwHOAIcAY4AR4Aj0AQIcAJuAtB5khwBjgBHgCPAEeAEzHWAI8AR4AhwBDgCTYAAJ+AmAJ0nyRHgCHAEOAIcgQYkYCISImqpSEWRiPBbgF/UxDEnItFRHaVEKiltFqWuU6ggbSpSSqhIUPLw28Q+lApQRJGykoqmr+AvIEAqUh2tplSHz6D0m4EFAB3Qf5qDxZMVoppqdbK5Y4I2vQovl1Z/QESdAAZfBzJHO/BCHNeABAw5RONECAUrrP/oc26af7GUApaX6EtNwEQ3vw+qI5ZdUgAEBFpjpvMhVGDVjhICzQxsbZhO8X5fSbD2UwJ1X1/9CSWmpQC/hJDe2uFf5ORfutN0zkNNYIKG3wIl6HqZTvnqLAmhgr7FhUSHCNR5Z50nG5KA0QOCSkiIXAmbhYeAzIM1j1AoOqhjneib9klZ/tgOw6CA3hyZTMFZgZjZgZYvaZaS/gVxsioArU9W/xEdk2p//VLB0fXQNzowQmKC0Z9nCk9YY7QmANAsrB4YdwFUXFb3F7EBDUjA+vYQhh9Z7sA/MHGhIOugNAiEXlEszdQqYxQKGsUMDslTfBHtfKaKG9wJvW+Hri/2O5i8hr+ADJgLLIXmkIdRCV7gDcZ5K2o+65lgnRMsNGmchXmRXOtDnczumVZV/0UcWIwHii55Gi9S7oYkYBGsEqEk3unHBCfvOKd18c4/xjuZ/g+U1GldxZMiqdXRPIzOs/r5MOUqiv7HBOd1cU5rE5zXxzutS3Baa0o6kABaDT8Jzj/CsdOP6h/3PAtFsz3z5Ep6gvP6OOd18U7r451+jHNaG2daClCnMqf+uA/bHtgFjM3v5hADYxEvxsFXd4bFoxmsEx/TOrkuwWldnCNU/7unLzJH+Pnre0MSMPAP5GdLy245McHZMUHZsUE5MUG5McGm/ZMTHXykz/fFd+7rfb5m2gd8fU/4+Qmzc2ICs2MDs2MO5MYGovRNTAGCcmKCoYwxTLf3H+g26vmrn2nfSUUxMyz6vP2sbIAoOBcgYgcmbgEOdBnJAiFQ85F7mwsB63vcImznXg3YmBtzwLRNPZYuKCc2ODsmULHCI8Xdl3He89frhiZg4KAtLbtTqiKiilAVpUpRVJnwDxWVlKojhk4qunNf3yRspiHo63vCkz2WgehpikBViIxSpCYlfUrVlCoIVQhUQWmqKCYHdx/5/NXPtO8EAg6NTXFzJ1RJRLVIVQIcmLgFEEXVwS6jpOgXOkRsXLRpyxpH3Op7f0V6Yui8/LSj1KRNvcxiRFRTqs4M3YEELLxQY6sBCVhWuK1/6CGKan121Xj81G9KFSJNoUDPCvgtKihJq6aJAk0hVE3AgispVRKaqqPJAlWKYPVSCU2hYioVVQJNxKtwpwgvSROospom4g1qEZ+lNFUrpujghSo8oyKiglI1nlHg+1WYdJooSndSqqREibl6KrfP5v/pM0Awp4ZOLL5zv5lUPFnQPzu4vic8xcMN5a4WweyCDghisk5MokQtUrUoKqgIxExEhVZMkaQsnVTpaLJWVFJRTUWQLKUqkSh1NJnSFGjMwYNqStSUpuhosk4EIUpyhPqgIjQZKZ+1+YD4BaoSxCRUFSUkCpoAGqWjSZSmQhNB0jS1TkwhJAW1Ee6kNJXSSzp6kQgpAsUsERUlSlFMxXLJjALFPNDN7mc4NOOvNDMsSgE6wCACuAhVYC1WUFGNmAO8AlXqoBGjhDorqLBZk0rhzkQC9V0lgokAndHSZJAsHhNRKYC2pAogQWYrmLwUKK9kQUwhoF1qMJFiGqUqHU1CXVJjgwkSwqSTBAKWh4jMCql0mEmWDUJTKQg6VSemQHKEKQ/TPbVOTCYiMztgo9DBSA3u2tyjICeHOuenhYoiAA5VBiw24oN1U1IArHFoYME3Y7KmBFhABKGn6kSlVkwWsAUvVUagA4UWarFaMgJgpdVaAqkAWYAsmNFOFUCIzCyAgJA1VFqo7yn4fiUYH3hEXQ3Kg08JLKup6C4qQFWg+qsYxUI7W0ymNFmUbALTH8gtoar0UP9kt23SeMznrvMGQcBYtcBQMhQExAVxZzrNCBhrCJMi8LQC7pdMLbSskSwRPmBNsMsU8EpFwcP9yM0qcFOomhKQFiNXsOOS8QUtYS6aXmPYU2oqKp5m2XoomROwpH11EjAoNFhDJQgIKFnNOFgCnEBVlKgUqiLaYrChKkrACqP1VCB9gm4QSdZQAYChocLAy2XhCnBDGiYnWXCCdVIvX6l5J3E/aKCsZlDVwfojVaNySo0AAmSvoFCNVZyA6zU1dRAwVjfAGVxhkoqSUkD90ttoxBYb4tC6guYXqgEzBVAf9W60TMyoJAR0Qy93hYAGV4RWGmvhqfC10ktkw6o3GmB8MC2UPlFRMMSYEE1BSoAkIGnIJ6QrZwnMAlxiRl9NiUIUOQGLMgFj8xrqo0TDUPHZsUKqWVi10fAy+69kth1qFsNZsgOpBN0teAp8J2gGIezJjNpBpkTPl/Agq6QQcWHmnYqpaCWYDjBewAYfVGcWnWUeIGZAavTLSTAOYi2tZCQRdB6Y3DG6k3ksIMXNl/W61lspnrpoEAQMqk+AFBF6CQVCUh7e8N25YZ6Pz7wNYfuKK8D3RViZ7wJKzxom6LhgiFtU4j0gY7nuoXigHmI7hVUzqNJQ4cEhw0a0vqXDfCCUK1Z+VtmIUic5cPXwrnyJE3B9BCyKYHkJjU45ON/HZ56Pz/wNB7dlPLooUmXFo/3hgbsfszYQVCHWagbZQS2CH8bNaP6eUhipCYXtXGVFftCpw4EF4NOAqsAPdn/o7WYKq7EUTDZSe/HhI9tcvH3mbtjpFXczipGxXhWxuYCWHYw7qCgz1nAAthgUg3vAT9mUWl/qIuDq6Kux67ZDvZ7r4z3f22fhgRN78qugPupbPyBNFBzSMBhc5nSCQFGI2IADK4zuDghFz3+SzrB2sxJiaYyAmSlnbe7yE1EH3DaC7rnsP7TvCYX2nNRoA0sKr2JqI9Dj53eszyphEteTrr5Bxsw6azewnOtVQsU9YJmAMQKhIBVnEo56bPKe5+0zb3fgnseSOJTgZekJEtsxCpGeOr9t3Y1i5mKpCNRihdSuYs0pbBhpq85F7UcV8pm3IXR/UTm2nPBt7Gbo9hJTUPpMnSDeKVVebKBD2x3cMKRezIN0LFVwJm65aSUTOUS5MHiGjQB4p5oVIfPYjmQPX5j/bCCjoOV6+KshaKnxAkG/FIQJLG9p2g/zZk9e6TPXx2eW/dhBcwJ2gH5DZZOsLXrAUMGYAw12U1QJJPmecsuxY8EasNq1HF+0khi3xFYSONmsUaOkGH2SWklwEhrj2FZiMmANKxX3gGWBPudB3R4wGLjUGxF2Xwwf5uM938fHYfbMb6f9uLag7GKR2mlIlxlX0LPU48/0O7UmZAThRFlw4EaDRdbHMOA2oqp8FHTy8H5mWNE+KiCwCcaaCR0Fit4t+GH396xxmbZ8vZOPz9ylS0aNnz8nJTOGuTuUgoFg7QDWuwFvqIq8eNTnfHJ4udSdyQm4HnWoi4BLDgU42NhNHLfWxxk4ePVM58nD1hwNelwF0oGICNQ+5oVAmBrIFWorsCzUX7jK4hZwkvk0RFQLUhNZCoGgrJGVoRuSdVph873gWOC6YXaTJ6xbv2D92jnLZ9h5Bvo9rIDuCXRewc0FU4AaReiW6R37RuSyZp9M80oM0WHzDoPPGLBhqsXaAQpOwDIBA57Fp07tGDNm0tjVa6HB7TF9+NKdm++Ws5gEE6IU+0Sfavukth8H32X0ppcvYUEvaDEz+68I/Pa7CXbe0IqaaT924JyA3agJ4FPBAWHdGfg4kCsLltSkguqkwNgG6BuE4pB3MaLGRAm9nNjRKQWx9T1cELLWR1NQVaAVDj2bGWEBye7bcRBWPTXi55cMwgMWsE2BCKai86qgNGhFjzddgk6WQmw56UGis/V/BoblYYsYCFJBiNRlKEKAAihZgJCmkgpJqsCZTo6rc6AWgXSxb0BBMIas7+eDGIhUyVlVh2AX1k9oE6WAFUCmJ9A3AHwMES2Mlz7Hb+4BS0r2CwSsovTYqp7dFsZEosFNKfhp1cQvx57KjipKcx7SZeZlqf6wyoahJOxHwAqgpkRFSDIGh0H7WRAY27nQT8Mi1YwyseEM92AUWvaomAoxQ6mk9EzEsi9HLdyYU6mgJKX8wT4fp2+X+PpqqlXQR4jmXoSoOHjtUku8NMzfYcLqXbuK9QFq7gH/3KjUfK+LgIsP+TtM9DkWXM6aRNqExMDJDssWXsmHAC92vUNrSQpOYCQQxZ2ib3wjE0Ntlcwf9mVAFBErNTSvGYkyXoRAN0aPdfDIxZunnZxcpp26Eq0jCiokP1CvnzPt+13x4ZWgdUDwsgeM7L55WsfPT+SyhMDIiNBYB7KXmu8QcJbMOg4ogYgapWpOwDIBE5qcq/xhqfPII+pz1QLY5CfXts6bMWRl6OFysNsAF1p+bGOBMd8+rc3HwXeYScf2FsG+HkncbPDHfpd3PtikjkOuTXqQOM/6/QlKsM8KKfCJ4wnkIBbKFJt0yBTo6abgqIJUaEth6w1D5aBF+AY1gdEDKgJ1HwYcMNcZ6RkGBGCDnsVjlJSA3lKqygwLSPYAAn4RB1g0CAJGS4cCgKJC9Fh7YdJrZsMualmPi5KQCyVF8VXaxLQQJ6cZK+5RJXnobWNhF0fUpODoFqee5matzcw+2HQpoUzjNbTVn/70fztM8tmSXaGk9zw+M29lZv63r2csxrDGGb/v/jZ71axuZq3a9hoUeMJzak/L/25r1tndH12c8L0zrDqZtzIzG5VAU2lZ+L7Ns8YOerdT+y+jYICrHGSu/4ATcH0EjJXhtK9Nuw4LfImYIoKWJ5WXXqgWFMWpjjb/GL5wcR8z89bf/bCxoEIpCAlph8Z0NWtjbvZPl0MHSrTKqtKQLXZWUyZ/Zm7W6rURc4sqkqtKQzaPtRo9pmdb89Ztv59bVK4ovrxg0uCFNzUH1oyb5LbQ6u/tzP5m+dbCY6fBaOb7On/xr7+Yt357+sy1k/scO7d90sBvN6Wc0GIzi9Kkyor48spkGBAUO97crJWZeavXrIYeSD5D768d1H/0BKtW5uav/tef/vRfr/7TIyIM/G9wvHgIuoZynz6qm4ADHCZsPBpUATVdTenFn07OcV0+L/XSpnEjx03r17ZrH4drRUe2zuxtad6qrVm33RlgE4TiI5tm9n7DvI25WZulUcwZPXN08aB32rY2N/82gUCXHrnnt9DuA3PQlp57siA6Qu75L7R73xxq9IdB9xS04tSh5ZO8dux4jA1u8LfKTuxfYuu8dsOjzNXf2dhN6PvfA+yW3brnN93m32ZtW78+5ZtpHawicpWiGLp3Rl/Ltq3NzEZeJEpSHrZn0/RxA//dqf2g8wJ6zxBigQGhODSPE3BNH7BQHRnrP8Nl+bo8CPmCG0MqI495jZjq5JGRsXnMqLFzBrTq2mfWtft7Fo7+wMys9V8mfDO5dfeDd9WUnj66aND7oAM2cTolrYo6Ezx7zIDO77wxIDhzr2efV7/02UPQ+yIkpbQoQSskpR1yWrxo3T2iFh5423QcE0sV2ZfXrJjZ5/uv+7zRts1r09beT5j5kXnrtr2+DE4+K9IzfrZ/m71qTk/zNm17DQo+4TG33zuvm7Xpvnw3tPLv+c+0+be5WRuztq27LPcn5cePBcy27/fuW+0GOzi37uLhh5SsfhTt/PH8lcjiqszQHeABw/JLT1eCer8ZCAGz7nHWOQ8hZSF24uv9FuWJMBoNO+3RlREuqoPnTB+//C5V0ftrB7SxPa9LvBazcOHYealPVDrVPIvBLnd1ycrg6U6Oa3Kpmgq7p7dt7R6vJAXHNswYtmDnrgJ6csvAVzuN8HxAz5zdaPPuu1+dvBUtZLkOfPOz8Oy4lOBJC1e7Zxcrb2/v8fY3i3NKQv0dPhk51yOnWCXSRE7A9SpSHRfr9ICZX0LpzsnQZmrV+v1ea0ODNaWJAkktSp3T9a9vTtt3ULi52uYTm/13YsqeeE3q/HHgVRW59WO/zkP3pEdXlOyf1eXvX09deY8e9R7wTp8VuypK9s7u8reRC9Zl08PeA9/5dEVgsXruCGunG0XBnrbvWzmsKq1SZO7/vqu10w3huP+EXrPWBVRUK6NXvfvm+z0Ontw6YdqUk7eidRhyZI1x7LnYO7/TX3+IU9H8gx7jPh+z2vtBumfPFn/wiEkjZaF+jpPAAwZrwvuA65B7rVN1EDApOezvYL96/468wiiNJrYw+9B2J1vHrf75eRtsOradf15JaUzCrtHTps+99FChvTi1rdn3idWRcbtGTZ/hkl6goNkrvrEYpyYJl8NnLvaYf6tAeSdw4F/7LrgnRJ7bMMV10crsMpU2ZtwbNksf0KhzGya7LvnhXplKiJ3wn9GeuU/CfNwn/hhxqBx7/sATIufPbxg21dnz7tUVfVv/17JYJSVnTvoMmzF/RW5xavquz/7e4YuI3Pi4gBEL17jnlKgy/bpbfrs0uyQswKH3iLlu2cUQfsTBJWweGvrHlPcB1xAwLY44umGsQ8DuMgzsizCNJfbCrnFTRk9NS/O26WA+85RSIDHxO0fNnOly+ZE6M2hAm9YfB99NuhQ+e5G7y+VHisygAX/t63Kn4uzxtYOGTZt/qwDmuZRr1n/3GhiQVn2GnFQc15QlQuwzaJaj48pMqtDmrfqizdBoqs5Wrxz2WQ+Pwwcr6J45f3n17ZFuD8tPhywf7uzlc6/sxOYvW7094ocHYvT5jUPf+/fg4NRT2ruugyyswnMjo7eNdFr8Q26xQogZ266DdcSt0KClfUfOc79XrCBZLl+9PVahUxJyPtzj83l7DmAQW5Whn4YkwurQz/sxCALGsVRSVFCEwa5qEjep9cdzMnBIqj7WpKJCckrQtOn2bnepiuR69WttG0UVdy95LLT/3jfYNyrG78bDZEFIVAfNdnJYlU2ThUzPnu3tUqD/ICZm29Slq9dklZ7YMrDV0mgFpfGqkEkLvdzvFqcI4tGVg9v5RocecB09y8XlZLT/uZjpNh2tT9w67u/wvYv3lifVMLKRE/Dz6pT+vroJWGRD+Vm/bMKV0wvte//zjf6jEu/GFKc5ffWubewTFc33d+k3Jijz7JPEKUMGu9wkakJDN37d1+vsmbKSvZ523fddguDzw5Njzceu0JQEe9p1D/kJ+vsfho81H7PiUZrTCGvHq5r9HrZfe4YcqNKp7sc5jLJ2upS+cfQk+yD1SYGqntxbOatX95BTvmPtxx+6cRrH7rFIIzT4YK5CZYQyZntMzI8rJ3yzaM3G/PSVH7boHnxfQUvD/BwneQEBq/k0JL2of+lvXQRcHOI7x7rre//+1Oqjz626WVn3mrFsxa1Spfb+j0Pf+HRvrppWnD26dor7lp2PiFJLdzh0fH9f0hFfzxHLDwRXELVAU7Qi+LLH14yfMsspPCYgOmbeYLNuR3KilYdnukyfEnLcPybGP71AKdDolMMzFkyfGnLcLyraL7NQRTRhm93Grzl6AMhAGnsVc8ZnxHSXFfeuefQz+/hAnkqXu//HJWPXRhwqhalNm6e/8cWJ9LAAh1FzXBadiPGNjpll26HviduhAQ7DXdZveVxddzCMh6DlELS2NPz4xnHOW/2LoB8Hqgyl8XG7x86wn33p8nqbDp/tuKcWNOG+K0YtObi3GAz+9inmnwTdOh+xxn7KTKdD0dtioud+a9bzwO3IiDVjnN3W51Qma2EuGYv8n43aMsm219uvD5qZU3pRFTjT0XFVFlXS3DVftBl2jibdTfVY6jQqKlNJ6MmtA1u7RqoFmqAKmeDi5XbryelNX766NEpN6EVFyASXVcuvP1ZSGrZmcDtfRSrRxmVe3RMX4x8T42Db0frE7bCDrnYu3pvzq5MpPbl19FurIhOqc3w9Jk4/eu2UgON5sQ8YFuJ4oRi0QRAw9oHLo6uQiTOWdDH7+Fge699VUnoydteSuMwkZdDMGeOX36FKcn/N521sI0EMF27Feq12tHMY2e3TiT53hURF0CwnR6/7REmuub7z3sSrOhUV4y/smuLqtTpLc2rzwFauUUoRxDBpAfi7KkE85vVVO9+4sKClNgP695vhOMrRaeTi5W5X74f6z5ngtWtnkRRprLuyPUPMPAQtmeM6CRj6Wh4F7fTdmg3hI5R16UGfMZ+6RkQUpzoP6TzzMlGQfN8F/UcfzIx8Ej1uwMjld8BfOREwqqfr8ROVJYEr9ARcFDn19aHLc0v2rxjZ49BPYFI1kZPb2rpmqh1GWjteLwryGDbWNypUSxX34xy+t3ZSX1s/cvz4YNVpHVUV5qxbMLD7oYS9i4f2d484Vqlj3Txxd1K3nI89XPz46KEVo+wn2jk62n77cc9Zqzc9TF/Rs4VtLFHRsjB/h4mrd+8qlpaU4SHoX2JfmAb/7DxgWnw4wGHihmNBZdLoKqndQx54D+34faSgJmVng1dPXLZjVyHI/cCS/1hsizy0aYntsgOBFdgRCO31ipPha4b3t/p8uuNoJ8eR8xcuvqxREzFKFbp0mdNoB9t3+jv4PQCKxTOOIx2GvvPtol151edPbZjivnVjbgX0GhCqqC45sdPdbsUOf03mD1+0GRZL1ZX3dq2YP2xtxKEqUM5t09/oe+L2cb85gwf27w+WwdFu8fLlP90P83OY6LV7ZxGM8KrDLHAClgmY6GKVhxyWLF2WWQY9voQqteVnDq4dvcDjx/t3vYd0+P6MoKwuCN3kOmTZwf2lQMB+k8x6Bt8+G772uwFWn091tGPyVT84f2L1VHdv3ydUTXJ2bNkK8pVGTml2OvV4Z3XyRWXgTCcnIGAh1+tzM9tImnIvdcVSJ7uozFRKT20c9OrSSBWlF1UhE1283G4+Ob1pYKulkSpCL6gOTnRZ5X7rsYrQsNWD221PirkR6bF45sjZs0c5On7e840vItLDDiydsnrXbmgikJTLYWOmuqxTRrh4bl11T5MMvcKiEgnYD7YeepFOYIMgYCKm4mgaZpFZB8/pfaPeGjzb86cihUjjkvcP79W536mc5KsnZ08ZMl6Rr3ocP6PTq7aRJDkrcU1AwFaIMqU4m7Uael57URU0deoU1/RyJS33H2v+jy3XVbQ0YpfLqEVb/R5pT24Z9Cr2IcUrD05csAoImIpha75qtz3pfJTf5KU+a/MqVPThpnXz1t4pPebvMHENgM46+eqoaXVVP07A9REwTKJ9ssvx0/8MWeP/GCf4Ft30nj3RZp/6fDGMgp55lagoEPDYA1mRpTluYz/8MvyugtzfPKbHN35XIitL9s4b+E/nPQfL6OmQGT0H+hypKNk/b8D/LDt4tIyeDZnZc6BPSJHaaaS10w1NsMewcb7Rx7RUkRvjNMra+XrJwZWTv1y+L7BCUKQGfvXh+90O/RSn8P3eauCY45kXRJLy8KbPQrs+ywP8NYp5b7UacLIkVXNv1xKbbjNWb3iUvuLjFrZxVE1hENbIJRu3PtFC60EfhQahozLwhThq83EdBEyKDwEBhwYBm8oD2kWVkOdj03H4eZiDGxO1fbzjArebRSpy0+V988HRBWdObR/j6LYqp0RFHu9YNd1B+Sg2MWiW6w+ed0vU5LHf6pk/ZFZFJx/x3Htkb0GVQhc1spWZnQLP7Duyr6BapTs38u8W9skkOV+xYtq4zz2PHqkQlLQq7vLhmcMnTTl7K0Z7z7Of2XdxVE0qjoesHblg7cZH5aq8GLvuHa1P3Dt/8scxy31+fFiuEvI3rZu/Rm8ZdqJlqMMscAKWCZiKyqLbW5ZNs3bdH1xaBRO1MyKcho8Ze0B9vurBBpuOI84QJdGej9g+xmH5qowi1YOECf9p3TMoK/5i8GzXVZ43i1LJ4x1eM39Irzofvmaau/c2IOAHm0e8+0+HffuKcHjzE9XiwYO+ishJvHJy9owxMxX56vz4GW+9OjSKIAE7jvrger8AACAASURBVIrKUFF6evOgVkujUilNVIZMXLQKCHjzoFauUckCvYCU7H7zsYLSMK+v2m87c2ibw9C52/w1OtXlYOuuHfvqCZg1u1OL8vZvnGrtsNjJ9/DuEh14iaKoygz1x5WwYPPN2nWg/mODIGBYaAZaFlgSKbaQUpy5Z8uCLzp/0t3KqvN7tmOPRh+ppKqC29uXDf9X557d7ZaO+LLV0BiiLEr385j6WY/e3a26dZ+182AhUaQnLLHt8sa0jZtziuNvHhrzeefuVr0//G7CjKiMWC09Ba2eaCWEoA9OXODldg8I+Njqwe23KZOLH+3YPOOrAX26W31kvS40vKQs1N/Bfg14wLDaTl1cW0fdYwt+8ZWwRFGs2wMG+Sbdv7rLffSbvay6W1l3++TLr38I3vGkMrk4jU1DUtH8gAX9x4bciRSqTx1f9c3n3btbffjRxFUb0kuTKkv2L/387/1tvupt9W4/+1mpuUmVJcHLP/9bvyFf9bF67wv7WZdyE4tTIQR9QxO0Agj4cDVV5aIHfI1ezE1eOv3rPtZWPXrbfzHqw8GROcqqgogL/nYf9OlhZdWt50DrGevWZz+5QIr2zv2kYxerDwcOHzBhVG/HVSuyr6/o+YptHFVRIfrcpuFfdP+fJUdCseJxD7geC1MHAdOSQzscJm08dgAHYUHcAuq+qCYP1g994/vzGBzWZGz/YcLnfT/pbtXlI5eQo8U0sTBzm+fEvta9e1h9/NaU9cH5lcrSx/sDFnzzZe/uVh/3WXHoWLGQ9DBx5ZzRfXp9+uFnnT9acOBokZD4IHHVnNGf9vq0+2edP1p2LAwqckXU9UsrFg/7vO9nPaw+/dh26LSw66dKdSqa/cOANt/FCmpCkwuub3QdZd23T3f7teOGdeh76r5Sk+e3aeagAX0+tOr56Y/HwkpKj/s7TPTatbP4FyZHcAKuIWCqotXxmdfXuY0e0O+z7lbW3b8ZNPHQlfBirUrI2zC0w/AzMLA8RZOx7YeJX/Tt3d1+5VibNj2D76aUPtkfsODrwb17WH9s5XnoaFHlufC1Uz19thYATSRnJG50+v6tXtbdrKy6fzJ4uO/5QxU0peD2tgVD/93l4+6jXIcP/n9DmQe8zHlUVJZKpKc3QwhawQjYZRWEoDcOenVJlJLQi+gBu918rCA01Our9tsvno/0G9uv17/6WPUY5TZjptXbuxLDDiydjHEvsPm60jMHXbv3Hjsr8sZFWF8PZznCSlg4DQn2f3vuj0EQMLgR0lBvNu0altUVqEJbeaGgMLJAE1NYmkgIzNYSSHJFWVyBJra4PKGsMKGaKgWiKC+PL9TEajTxlTpYnFKnSyktjimpSBSgNZ1UUhhTWBhTUnZREGD9ncri2HLwXZTaqgsVFYm4ellKZUl8pS6ViCkV5XEaTYxGk1AJS+Eoq8oTK6twBjfMN6iTbp89yT1gSfvqJGA2k48AtrGFhdEFmmhN8YUqHSxbRnQXSksuQHcsSakoTaqCmqnUVV8s0sQUaGLKq1MoUVYW7/cc2S0gKb5QE11cnkypqrJkn+eIrvsV8RpNTHH5RR1RUiG5tCRJSxQVZRcqdLBsjaBNLCvFJfFISmlJrEYTm3nd3anniPiH2JOkS9aAmkUXFMVXVOPcU1FdVRpbWBhTVJRQVnahrDKpSkgs0iToUEt1VYklRVEllTBdjXvA9ZqaugiYKirKL1ZWw8wNmCCEkQMYaykkl2ouaCHsrKaCorIsoagQKnW5kMzGiFSUJ2gKYzSamBItzPKkNKm6Iq6oMFpTmFABq1dCZS8vi9egKagQcKkjklReFqfRRGk0F6rwHlylIaWyOEZTGFeoidGUXoC1IEBnEotBvjANkpCUCnhPlKYisbwooVqAqGMle3NhQoVOBTeUJ1RW4eTyuswCJ+BaBKyGtTypoqo0XgPD7uKLSxIEnBhGSWJpUaIWZ74IiDCY8YqL5Zq4KgEWR6suv1CMOoCyS9FWxldUKgSaiouVqipKwbAXFEYVFl/QCTDPUBAUKLiYovLEUs1FrajS6VLKy2GGhSCmVJXGVmhVsHJt1cWKiiSBKCtL4/CMSledVA5nIARbWRpfqVNqq+KLNdEFmtiSyuTK0oQKbUp1hZ4LxFRaFR29ddrCZetzmFJBx3ZyRtjOZA9faRPKemtF7YsGQcDQow7zblNgPSwcj9q7d2cLiw6Wlh0sLdvjTztLy/YWndp1suxoYdnewrKdpUV7S4t2FhbtLC3wkmW7TnjG0rJDp07t4AZ80MKio4VFewvLNywtO1rCsx0sLNjVmqcsLNux85aW7SzxWQsLeFsnyw6WndrDSYv2uObRs1xb5xlOwPURsCiqpk6xtbDowOTLJNUJZN3eohPICARngbCjoC06tUcpd7C0aN8JJP7Xtq/+v7+2b9cJpIaX3vxv81b/968d4CtIH8QNcgTxWXRgj3eyaP82PNu+499a/+mPLVu0aPmHP/75vzsynYHbQMog7naWlu0smA7A++GkpDOQentLC8geJISpcA+4timp67gOAj58eA2rgwhvu7ew/lp2at8JRN+BVWqss6ADFhYdOiHmlpYgcQa7ZaeOcMB+oEYz8T1VebFSg3EANWCvfQsUA6TJDAi8vF0nyYCArEG+cBWewryhdoEO6M+81eEttDns5fCIZfs62+WcgGUCvnrtIFYuNON69ECazEqD9CUxdbLsgHUWrToacKyJqBKoCczmg3Q6tbfohFYCdEAy6SCOTowXOsCDINkOndAmWHZC82IBrwKbwEwEKgAIlJEC2gdW99H+IPVYtHsbjQDoHlgbSNeiQ5s/vfKHP71q1lEyU+3Y1OGMsJ0Kd+gDNr5BWDA3FPuxcUUFXGAS182AwBROlMb1P3FFbKBnWLVEvzACrDIKswlxthIaRFg3Q8S1/oHX2ax8abI8LHgpEgh54ZqFbE43xJZxoLW0HjdbeQM9cljxDpNmYcY66fbZk5yAf4WAmc1i0+RxLAw0PHG1BAyEYL8gTLEHuaQyPwmHa8E6CdXloftWjDqTAasjYeBEWVl+JHDFqNgsaVcieApcZ7a+IC7LgKsriATWZ3ii9Jw+uo+19YdDvpsal8/8V+i7xdUupeVLwd/CHgcYM4L+DVNL1DGWLtzAVq/lHnBdvCufq4OAweWFKozLJjAPGOoj26tDGguCg2tScAF2UAMpaiKtSclWANWvjQC7OMByobi+KRuVA+qEey7Bgv64lgI06/ElsH8GLgyuEiHajIpXy4XF1Rj0OgP9YmBt0DiwBQtRQ0BXU7G/TIET2Z+1AHwecM00JKmBAoENXE1Wwhy25UCpAbxo5FUiUACMZoI7YQUMiEGinsAB1komGjT48B41rsrOhkOrsM6qcH8XaX0PvZpJ1hvrskqkl3CRJTwJo5cVsPoKaAVae5gyg/O5QSsYNcAUGFyEB9c+o6kkd80U6z6zXNfn4OMYwgHtzQzboYDtCMEHfv6PQXjAdbYijfYkJ2BJ/eoMQbOQo9EK91lry6o3CB0LxQdh1TY+dRLwsxia2hnuAcsesAnV9Hq0lBHwToWHX23tf55jTsD1wPrbLnEC5gT8PFWvOdzDCbg5SLmOMnICrgOUuk5xAv5tLFvPU5yAJUXjHnBdNa5ZneME3KzEXVNYTsA1WNR7xAm4Hir9bZc4AUsaxwm43qrXHC5yAm4OUq6jjJyA6wClrlOcgH8by9bzFCdgSdE4AddV45rVOU7AzUrcNYXlBFyDRb1HnIDrodLfdokTsKRxnIDrrXrN4SIn4OYg5TrKyAm4DlDqOsUJ+LexbD1PcQKWFI0TcF01rlmd4wTcrMRdU1hOwDVY1HvECbgeKv1tlzgBSxrHCbjeqtccLnICbg5SrqOMnIDrAKWuU5yAfxvL1vMUJ2BJ0TgB11XjmtU5TsDNStw1heUEXINFvUecgOuh0t92iROwpHGcgOutes3hIifg5iDlOsrICbgOUOo6xQn4t7FsPU9xApYUjRNwXTWuWZ3jBNysxF1TWE7ANVjUe8QJuB4q/W2XOAFLGscJuN6q1xwucgJuDlKuo4ycgOsApa5TnIB/G8vW8xQnYEnROAHXVeOa1TlOwM1K3DWF5QRcg0W9Rw1IwBQ2JiZUJFtadoPdbKTV6nETG9xlSL+TDFvO3kR+E1Gho0kRQycW3blPRApbU73I5hj1CsvILl7fczzZYxnuUsC2nVGyY1OSO+7pJO/HoBbFlOBuo4xMTg2WXSrS22Hnk92Xw+5GsAkS7nDFtrEyXQsgisoDXUdBzce6L1Aq2YEGw9lAXqwTBQo/YPAihs7NTzsubVlm0rIWRYUgwubWmaE7kj22g7knLyCQBiVgAvKgdEvLrrCdk7SxIDiIJvwDO5pRRYTNhOKs+7AzFcF/LyAR07n1+p7wZA832HeMKnHrtxS2laQpSR/3SYRd0vBAIYqq4O6cgCUdpiJND4tKcl/KtpyDXUcJ7AZoSgpQZ1kOdBnJCJjg9rBAwMT0m+HYztDBfriieGKo88PUMCRgU7b2sJsqbGgImypmhAakuG+nIlj85zfiDUrAoIQECTjg9U/9Xuvj/9qn/m17+7f9xKR/evu/1mf7nz4qunOfVcIX3CDy+WVn6Hde33N8258/DGhrFfBaHz/z3kwHAl7rY1LSf+1Tv9c+DXjts4DXege0/cy/7ScHutkZumAaK39UpJlhMX5/7u3X9rPt5n182/bxfa2Xr+lbgE8O6j1gZgEEsZnYAObqg82PGDrXz+xjX6wRJlXfnyGvgNf67Hj9M7/Xevu3/iTJfbsApTcQAgatw48oipArpGNTD8hCBAZaQczxJVjuFxNJY5nHBk8Hg1FUpIJICXRGSPrwIgGaBs/j702AeThMt7GkYGt/70tN5nmsCHIMtrY9MJki1lkQKooEtYFZPYxKNgOtQO+PgM1j5r5Z1ASJ1/APNrTgqE6tqPNkA3rAoIMgCSYM6Td2ENSZExM5KREwll2Q2h3NmICRdaFJwggYK6eJSBqLwSws+w3FhA6gF6h+pgRF3WXB+qBHSQfyf6Eusrpfauhn9W1NqdwiNsoNPdO/P3/MxgP/EGxsYb3//a817Dfo3UoW7cXfBhKCRrVDFWR+II5JaAb+gd7asPLCN2Bjw9aiBsodjsNjjTCIhrCIiOl5wKzuYTOLEJNvYr6YruiFzmoFgQ4y068LkgnQExIgZvqFZmFOKDOB4beS4/Vi2mKMd6NkCZVIjsn8+cvRkB5wDQNLlpfp5fNnzjjvlEwN/IEQAIwDbx7171lxMWailOr0LWJE5dkbjfYMCrtGvUVRaK6yrkOELBokVQRsgSH/mj4XoVbU/KoDGlM8xQqsZ17sg2sGjS3obYAIh7619YLuVgMTMIvKgbZJ6tg4vqCkCqjlwION/NEbHlZutMh15EEQsWcU+g0wbAlPiYTqiKiF9jKGM5HERUHUEWl8P0bw8KxAdYTq2A1QROyAEaiWUhh5jr0RADYRiT4hdD0xPkSoIIhaRAmTYk0FKhB4Vu6wh3dqIT8YUoEkILL0Qm352lLHTDWSJGorgKx8DZE2oAKNCwlvgIx/9AgwcJjKoIZKVkB/vQH/1lYASQnxTwMm+fSr9Yk2jsF7Ou0m+iZhzuo5a3E3Vk6w41mqelI2GitpfZXXWwJmDp479YYm4OfOyEu9UZaBvhpIf19qIr/3ZcCYVMDQhTRbgTw4M+q9+bHQmpJ4FKhUbloxK08pjf+h/RtDw7P1hUJHGxmgIGa71yrPY7nl6HrCg09itnl5+ZzNyQyzeaOdmVlbM/O28Mu8q9uJ9CqJgiF8ok+FJaZjCo26pC16mLB6tt2ZDMiJQDC89HuL3uDPJyQkLFq0CNCTm36N3w5r8FLyBH4RgZ9VfPnrLz7ALxgzAky+rATGJWvTJGBZEmZmZrI8mDk2HDUDnsUOMUpFXXX5o7yYlUN6v95ybAx4oeB0wh8ctQTzqYEZkbB16Zu++df0uQ79POKqBanrQbpbfHx2g/tS15CccrwdPNbHZzcsd18dkZN+uF+b6XEQDgc8hJvBvf858UB+sd51Qxcc+23QCYZ7kJbhQJMX4zHRJuIW42Yc4Gk4IP5CTmJiYhwdHWuzL1ODX7idnzY1BDQajZWV1c8UwNQKycujR0Cu3T74kb/qrxvuX5MlYCYDc3NzgxUGZAzn5oiUFt1KWOk8Ysai6dZtp0VhjssL7l65fq2oHILMEvVhZLn0yra+3Zcl3To008Y5Pr9Cuvjocuix0NDTh73nz1225GBOuUDzr4SGHjt2OmTdfEf31Sey00MGtJmWgIMTwd0uip/Wf9aRm6WUaB9nqc/Cw+eu3S8VIFpd/QjOhIaGnvspr0SkOk1erLv9kIhblBTdjTp3IiG9zHDVWZ+zq1ev7tixg31jCmCwaqDPMv/7MhFgBMxDIC8TUwN+l1zHGQEbcE5/njUTJ+DFixfLsjE4DxjivsCtIiUVGs2jgoLKB+G2HWdFQR8uKbiTdOzUiZzCanBY4QRMp6S0IHLZ5G+8Y4XKogOeNstCblZB8fKinD/vbus023n6t198OQsIOC/Kud+HwxxnwpmBjl4R2elHBrT5dLaPNyiot4+3y+huc48UlWvLC1XbHezGjXN0GDNq1NwD18u0FYXq7Q6jx4x1cBhjN2Je8B0qFubFekwYciIl8/QW1yETZm6OfvxzJTLI77UZV9YBg8wpz9TLR6CiomLz5s2y3OWDl58Sf6MBICDLNxY/LPJhAPn69SyYLAH/LPrEJPTreDTiHZLzCg4pI1eRPAgf+sasKMnpZR3D7BJkH2LC98+NHeJy5MZjKlSlhrlPnOadli8KGft6dB53OkfQld3bt2iqw5KD2Vf3fdh5zPlcWl16d+/iyfNWn8i+fegLs/5Ldu7etWvX7t27d22c901/5+MZZfeVGyYOdE0spKQweuJ/RvrfKH2o2iKdKYie8J8Re/KIJi/efVSv+U7usxx/jMksMpZ5nLUlXvu4ESXMk2p6BGTRywdNnyeegwZAgMlX9rLkgwZI6mW+khPwy0Tzxd4lRZbhDx6K5MHxoR1nR6NPDPoksmmTsmqVJe9y+Ncb7f/xn86du3R+7+03/tJ9hF/8/fvhzmZWa+/AXU/O+7gvX3JQGeJsbrU6B176+JyPm4fXyezbR75oMz1O6kkmVKte1OVdp2OaO4cdBzsceQB35gaM6LogXJN1xHGw45GHkHa2/4gu88/TovsJ06zeHzl+0reLNvyUV0Jgpo2hf5RK5dq1a1kuZfgMPdM8fw2AgCx9Y7HIDYBBs3ilLGjZ9TKKYpsmARP8iKL45ptvsorHxGNQIoHAMjAvi0PjTKL7J4Z0mBpZeyI7TtwgolagRCy5vmnSwo0RyrxCTaGm8HHeFf+F0xyWH7kXs8bcej0S8ONTG5YscT2QFfXja9brs+DdBWd83JZ5hd9LP9Sv9ew4IFp4o0DTlnX7eq2iJDvaa/ww35tw9ppb969/VBTmRq8db7vtBhDwVc/uNuuuVxTkRbqP++bY5au+E2b6nEh/oaXGXzrg0nwD/WQfHOVcRyJsEFbtOlnHTfyU6SJQVFQ0ePBgWQEMsPqbLvZNUDJm8Cml27Zt27p1qxGJ2zQJWG4EGfYoaJy+DaSIHEyI8DDMtsOMKBiITLSVxU8KC6t0sLg3TjESsuJ3fj/DOeF2ISw1A0/Re3GbHRcuupiZsPzdN2btzbypPDvf1nqk64Hc8kvL3us4L/jODeWZuUM/s18dkXM7pL/5mAOZd7LuZGXdSVcELu41as31ssqC7INO/W19z93JPOXzSY/5EYXlT7IPOQ4Y5ncuK+P0ho97zI8VqSYvzn3CkBO3KLkeYjXUNTa/vAlqmD5Jabn32i0X/aXaf5OSkjw8PGT7W/sSP24OCPBBWM1BynIZZS/LGz+cgGVkmuyAycDOzk62wgYXg8K1CdAjxfWyqCgWKr0m+V9CSs6/EbkzaH/WYxxlBTeVXI86GhiY8LgKp/bjPeTRpQCvLaGXc7UPzy4YYmM3febKVduDAuOeVFLy4JSzjY3djOmrvHwPHFPl5yUuGzl8iM0Q+NgMsRniejrrsU4Uia70ypktk4cOGWIzc19SrpYQqiu9cnrjZLhz2v7k+6IolhdcDdm8Ugl7OxXEbJo1bJOyyYRaa1KvXqzg0D+bH/3Vmr/P3sPPmDACZWVlrq6uckOcHZhweXnRGALh+GHV3igwMU0PuMbuGvJSDFIucX16oFhpNSWcjsvGXgk4AhpugLnBrKcYn9Kvro2OMJyReovxFXgHrluFcW1YqgU9RnieTTBmy1/pvUn2Evwt7Zmg75XGJ/CcPqGmXutYwqz2al2cgI3C0jRuJiU9qfWncdPnqTUqArXkDIdG1N7iBNyoivJUYrgIFqyTjN2q0gYiwI3AdqyzE7dxAI3CH6Zm0LWr7zquWfNcT8kSd+LjyNrSs6ynuYZr8Y3wFUZ6SUFwHGhdS5dxqUtc/QNOElyjo4nXtWaNEFxsE7D8pT7gGzduBAUFyQ4QK9NT4PMvpo5ALUWGQ1MvbrMuX21ZGxcQpknATAaEkD59+hiuPCRawD/Aj4wdZdZAlgWexNU6gEelOxldsruZa4sLgBPcCxrXxkJK1b8QSRaeZgtOSs8RmPskL24psT863HpPW4r3svuR8Rm5Ny2gEgoS8+J6YXXY1p8NwmIPNW3GeeqNiUBJScnkyZP1ygJ/GzN1nlbjI8BkHYgfIxK3KRMwpdTMzIypAhNP46tFfSmyyDAbTyXzb81eCEh3SLtSbBoJky3LgX4zfBeQWZGGGUci97KlO2BzBbaqM+NU/UKUEtMjJDUsy5azZPlAKq9xuyXuh00jCIG9Iprus8dycE2YnW30WJdt5QTcdCIyiJTlQVis4huRRTYI+Iw2E3wpysYWHfPK5GrGDiBsir2i73f+oFbwFrs+MW6J45/4V+NDoLK4ZM9b38RMX1l8535xVi6B1bDZjhbMU5faCmybC9bEwI5spheNrZw8vaZCoLi4eOTIkYx3axuHpsoPT7dBEZBFvBM/RlTbjd4DlqGvdfCUV/jUec6+Ro4Ao9nsaEWEzdyTNnNvh5y7czJBio9LK10zSsbhZuxu1ADsTW9QI8BfblgIsIov9+jIXw0rlzw3LwmBWnZeOnxJL27Y1xg/AeNuujWDkaTAqTRqiQVk9Xa4YaHkb28EBKTQBVYxkdCLSzbHz/NO8wnKiVXJNVCkYk5OTmxsLAt+MB3A+H0jZJAnYVgIMK1gNGxYOeO5aRgEauxAw7z/5b7V6AlY7p9kuGvLKs/bu52f4Hbe3i1qgvs5PDg/wT3S3o3/mAAC5+zdzk1wi5zgHonCPWe//Izdki0tuwe9913kBJA7lHGi+74vp69870t2z1n75XI/xcutPPxtBotAeXm5l5eXbIvlA4PNMM/Y70FA7uM/e/bsmTNnmLh/zwsb7VlTIWD9vJ0qTcnBD8fkp918lHYzH3/YwUWXjcoVAewM/23ECKRKYs3XH2xq2X3zH3qcHeOan3rz0Idj78en1i7do9QbvmafyuO2Gq1e8YSaFoHag7DYjD4jMspNC50xpi6L2NsbNnyT+djwy2L0BMwmosgDe8sLi0L7ToXKBpFH6PBkFe/ShuAbe04Yvjx4DutHgEmT/T7xtYPfa9ZVmpLKwmJtRSWl9EjfqZWaEow2S/OzKKX+ba3kWHT9L+dXTQYBRsC8A9hkBFp/QWSzALutenuzr/U/YiBXjZ6A9QN5gXAFkVYVlhzrOxWH44hspSfgYJGmbQi6vifcQEDn2fjNCBTduZ91LGZfp292d/o6L+kKTpHG/n6cT3Ws79QqRsDY/MI51MT3dWtQDgLzrPinmSAgW2TOwc1B4rUZt7boDb/sxk/AT2NcpQECfvocfOME/CwmxnjmhM3ci65bWKtLqnVSpANKwwiYlYsN1xJF0b+tlTGWlOf59yAgW+GfHfyed/JnDRYBFoJm2ZMlbrC5rZ0xTsC10eDHho6AXLvkA1woDBiZE7ChC68R81dZWXno0CFZSYyoU7ARQTKdpJigRVFMxY/81fBLyAnY8GXEc1iDwFMmFToXsI8fJzdzAq6Bqdkf8T7gZqUCMuPylbCaWO48BN3EAmjg5GsImIjYyc8JuIERN87XazQaa2tr5vjKOmOcReG5/nUEZBEzAv71BwzmDu4BG4woeEaeBwH9lF62uIo0CIt7wM8DXXO6h1JaWloq22X5oDlh0IzKKsu3srKyqqrKiNZd4QTcjNTUBIqKU4ykqWU4uQj3suAEbAKibZgiyKaZdwM3DMCG8lZZ0PK4d0PJWb354ARcLzz8ogEioJ/bLc1AAy/Y0AdhYZalJaulvLJSiDBjDjuyYTKVfto62x1SMinY3CAENr7CcuqLT/BZ+MZkJO0tids7s1vhBfC0tDElbDRNaq5Ic+fBXulP4gYm0hcJU0wFNoHWJw6JEdhoi72d3YZvMCRV0Wq1CQkJEoL6P4aUQZ6Xl4mAXsI0HT/s68tMoMHexQm4waDlL24sBBg3GPIgLORBHdtEkk1MZ6F02MkJ9orE3ZvQbOB+zloq4o6SertCqE6gOpzvrA/BU6oTBZzpzsLw0i7OgkSNEtmzV0Iq0lRonfRK2A2aHbM74SWECGwfSikjFNoBgkjkx1nIQaSiQHTAwMj1cFKEfSobS9rPlU7tlbD0KPJ54M8FnTHeJK+ExRfiaGLx8UFYTSyApkjeGAgYPVFN6kanmePHj5893y3hnuSe6hkVuA/dSoHkx7vZjx83fvx4+/H4WRx2owBuEwVgSWBE5tWiXwr0IsfkyeO7F44GBV1/hKQjCpRUZiXtm2dvj2+CV26NfVSzSBi8CVIlYMAYvwsicDOF/TwlF5mID86sn3/kTsXDuP2HT8bfrsDLSOjsThGZ2EAJWA5I8hB0U1TNRkqTCfd/N4Dntna9kQAAIABJREFUo6AbCfFfSoYT8C8hY8LnjYCAgbTuBM0eMnnl6bS0tBC37wbP8L+ikfxURqhUcnoJzdr5aWu7PWlpbFKjav/irh8tTZFpD3q99QFgiTXZZCyBUuGeer+r45zITOZSEypUKgLdJtitPpeampaWlpa6bcz7Vj+efcR8Wcaf6OBSWnLdb55P+M0Heh+ZpYfUXvUw46f7ZaXp/g6uq3ddKIZoNMsA3CO53obFv6JOp7t9+7bMvuzAhKsALxpD4BF+JN01BlB4CNoYpMTzWC8Chk/AELa9HW4zwTM+t5hS4eGtE24z7CNu6ntWmSMK86rwk7XnM/O5F3BHY+yhTXSx/HJHBtAeTr3CmDOSNjyn936RY4RsVfAyJ6eoLObOilRXrghe6ex0OFfqMBbT90ztarX+BnsZBJmxX5hSolF72i7ck5qtZawqBcaxixoj2EJpBhDwzovFFLqABUhBoKJWgI7jesXTRBeZFWa/iYFFyJsIEpNNFkJCUoeIkXU0cAI2WaVsPgUzfAJmq1KzHl9RFG9fXDfhm5nnsoBFL67tPX7/HXBqRZ2IPbjk7m6rNhOPZmVlZWXA/9Al/+N0TNAVRm2d0rWdhUX7bjM2x+VV6ATt49ht07q2t7Ts2G3qlphCLXTr3kvdv8zJOepmWe7JFW/+4x/j99xWBq1ycjiYA74qJPfkzkHnTybF5AkVmjivwdb/sOj0n/84RxXciw1Y0PXPZn9t12/75cdKH5vX21l06vi3Np86XEgvFDM3DrBYeKkkI8DB1Qs8YCLSCpXPyL91tLTs0GWSz9ncUoFSrUHpGyHkwYMHtTnYoLLHM/PSEWCyLsaPEXU3cAJ+6ZrAX9jYCBg+AWMPMOvkJSUZcZ7T7VxDUsvAe9U7sBBVhi5eSonuzs5e/+etT4d8O2TIEBsbmyEDP7Qat+OnW3vH9xhxPIuSnNPDe0zwv/qoNHfvhO4jzt4jNOfUiO4TA3PKkICDls6y992wydbW8fCtCipUqgJXOjsdzNW7ypq8GE87q0NpuQcWjF2+P6lCRxT7Jn03dXfWQ7Wn7YJ96mwtvbzJfsrpdCI8SnT+xnbp8Vti+sYBlotSS9L9HZasAQIWRHp6Wvu+RzIJzUtevfGwIkdjaCZPXohD5uDGVkqeXlMgwPuAmwL1WmnyPuBaYDSXQ8MnYBwxDEORC9JCZn/Za+rqmIcSM7B+WBj0hD27EEcT7u2yMndIJFJ0mRSfmfhmZ5dVrgOH78iCLte7viMGuoVnF8QsHjTcLxvek+U3YtCyyCJCtXdT90/7xsruO/vvvY6XVgpUqFAFrnRyDMnVE1FBzoklXw4/eUnl/t2wYeNnL3Vzm+84wqbf4rjbas9hC3al3tFSWpwVvcnNzd3NyaZLf7ewmyR9w5edlqSVZgQ4LIEQNAT7bu9fOs5hqpubm1tg5HUNbAVpWGHonxFwc6kJzbWccvuPE3ATqwAn4CYWQFMkbwwEDO5vYdrByQPHzNt1Mgv2LMZ+q5rRTBAfhgk9lAp3A6zNHRLhG45xEpPmduqx2Gfp1zZ+6eAoZ2yx/cbzZE5h3NLBQ7bCcCuasdXmG88Y6F2+mxo4a8y4HSdCpts6RqSXUaFSGbjK0eFALmV8TrLPLv+yj3vqA7XnsLGTF3rt2L179+59YaeVD+HMgt3qu1WPYtztJi732b1799pJfb71DLsl3Pb50nKxqvQ2DsKCPmBChfKSW2d27961xulrW/eI9CeigRFwdXX16dOnmV3Wtz3gb1OoJ0+zwRGQRfzTTz9du3aNfW3wVF9GAjwE/TJQ5O9oUgSMgYBFWnR5jd0o513KYvBscfSTZDZYFBqIFM9TkuX/KRAwzg8SaV7kkv/0WZKUfcC+67eHb1KSFf5110k7b+aXPgyc0O2b4xlUyAr7tuvkgw/KKa2+lxq41NkhMqs8L9Tz3TF7c4UqZdBKR8eDOez1NMnl/X9P2nK1QvvoiOuoxTsvVGhpvmrvcqcDmYWpHrb2q06ll8UusHzTWVFFclJ2ftet6+Ljt4R0n0GWS1LL0rEPOKGYUpoTOK2/c8IjUbgdZtNr8ra0bGgqGNhHtsISzPjHwPLIs/PSEKgtZVn0L+3tDfYiTsANBi1/cWMhYAQELJJbJ5Z9YtnylRYtWrT4Y8sWLf7Vb/zJW7C+VfQSi6+2pkPfLxHYOGjh7p4P4bZXWsLvFi1afLs367Goq1IHO7zdssUrLSwd96uKtDoqVKmC5ljAGzvN2auuguHLwr3UoGVzcRS0mLd1QOu/zIlICZz55istXmkBPy1atFgSif3OMKD6yuq+H/zfFq+83mF4RA4l5MmZFbYdW7WceDB1yYdwb/vPhjiM6ucckCake3/VyVVdkr5jjuua3YlFGGzO2GuHb3xjypa4/EpYHauxpP1i6ci2mLu/Lwackd9tLOLmBGzkisazL63PCEAc6zu1SlPCIJFZ2b+tVZODJDXPpRFXMGEX4rhs4gROqsXVNSQvFW7GQ2mKrdQ9zJbhkK7hm1iEmt3L1qvCdGBBK/0rWMJSukS/0BU7kLufcfyX9IhOShu+4qKUAq6HhYmw/OACHVL+ao8ia3KQa2egzpWwjMUo1y4IP34eBJias4U4vL29jUjQnICfR778HoNGQOZaQydgoDFY0pkSXEtZT1964sUlqWoRIDMrbEUqnHcLz0v8B5wq8ar+CYhsI0fK78NAtz4V2UjpD+BN+lnA7JyeoKFpoF+QAx4X9GnBm/ERqfVQkwMgawP61N4P2EhniBoQmgafFVnEfBBWE8uKD8JqYgE0RfLGQMAyVWEHME4KAmpjbMyYUFoJi7meepZk7Aq7IcAqHDhICx+CN7B36ukWfeqn2Rb5+qk3YagbeFx6Vl7HAwd8SQnoaZ6NzcYlodn96ITjys/scTk1eKFBfSorK3fv3l3bE6p9bFBZ5Zl5iQgkJSUlJiYylX+Jr224Vxm9B6xfCo/Fy8QqTcnOdgPO2buds1+Ov93O2budn+Ae0nPc9T3hDYcjf3MTIvAsAYNWMHYQaUBba7bBT1M6aZBF5Dj4JW1JpM9PDYNKhkPSZUBUPgOP1/yH89Ig6ZoXw3uwpIwt2aNIjRI76tkWn2Yvk5/GJ1k0H6mKtQ3wHVJC+gTxLzYCpIcxY41FwAT2h9BnRa9zOvCAsPj6M9K8Ljb0W18s/UX+19QQYB4wKxXTe2Npbxk/AevxZkaW6IT81Jv5adLPo9Qb7PhR6o2KJ0Wmpne8PIgAkgUcySFouVlGKfVra8W4T094HDUjRiB88JzgLiOjpqxAmULlh8U09W0YmYaf7QPn0jdiqf9a1hkJsLv0hNBYTcJfy1v9142egHGxXKxcLDyHi9eyyva/ffJmZmayG2EsbaL6BcavPovAswQs3YP22P/1vvporXHUyWcLyM/URoCKNCdWufUPPS5tCMbBbBAcgG5qtnA1Nr40hZq+ffuymIBskbkFqA2jKR3LBMz7gBtbrBL0UsQMgmtyBxel1NzcXJZNY+eMp9dYCDxLwCB05g1R6v+aFdMBA50o01gomUY6bP9kJtAUz4C9b32Tl3i5KCOnLO8xO8nGjBVqCq2trFj3td49Ng0AeCnqQEAvemk7wjruMNRTxu8By9Sr7+GCWge9U/AZPXq0LBtDFQHP1+9FoA4CluQPrTG/160zQ6PxJyYzlP8YPQIZodEZIFAoSMax6J1/77+5ZffA94dnhsYUZeSAMlBaXFq6zNUVXF5W/9lwtN+raPx5A0VANvLh+GH230Dz+nS2jJ6AZeihnatv67IRJfIldvB0wfk300HgWQKWY84EPGDrFHffZPjxS+E/Ro5Asrsf+2GiBJm6+V5ctGlTy+4hvcbXnGTF9PBDufsme/jh9CnT0Xlekp8hIFt7dt5YuhtMh4BlAcBcSNYpLJ/SH/xMZvyraSDwLAGzxhhze/xfs4YlJ9jgANMocDMuhTR1S9/YVnrtOmfvFjVlxfXd4Q9SrsY7rUtctOna7uM39oRf3x1+fU/4td3hP+0J396qN7MBzRg5Ey+63sbXhD+NosBGT8BAtfgjCwAGYeCwSFEU+/Tpw5pCvPoZhTr+tkzWQcDSpB/whP1xFLSkJ78tAf6UwSAgUFErQgM783hscNdRNw+eyU+7+eRKOiPmeKd1uTEqjDzjRCl9tYfV0KSh8AZTEp6Rl4cAwQ+lNDAwcP/+/Xqxv7wEGuxNxk/A9UJjZmZWQ8xQR/nHBBF4loBrxsaLoiEsRWmCoDdRkSillZqSja90Oz/BHXdPxvqNjXBRFBkBP5s1rgPPYmJKZ2Qvyxs/nICbXrhMBu+//z4n4KYXRgPngBNwAwNsQK8nIg3uMhK8WVwGBNYGk0JgkElOwAYkqqbIyk78cAJuCuxrpfkz0pW/1rqFH5oOApyATUeWv1oS/bhmuVLDCe4B/ypuJn1DjTLgER8F3cTSri0PeUqSsYyLa2LsjDB52f7KK2HxELQRivH5ssw831o1HFfbAIeYe8DPh6AJ3lVLHYysn9GU+4AppTNmzDBBdeNFehoBTsBP42HS33DBO1z2Cq0um3nIPWCTlvnzFI5x8Fn8GJGvZeIEzJailJ3g5xEkv8foEOAEbHQi++0Zlpb5BpeXTTPjHvBvB9PknuRLURqESFlrSBRFc3Nzg8gQz0RDImBQBEwpEWi1gHsLwoQ43LqHUEEHO+zCgCFsnsNqbYJItKQKvrIC4G9B1MGGu/ABqsHJM6KWVhNajW8SYXde+KE6qhVgcjOb9479oPBuHW45jOuxsndQyjLDYnMU3g9ndFSHb4fEBWAzUUd1WrEaMgw7H0pDmwjVVos6qZeVzeSBV1QRfAifg1nWcIAbBbOyEBG2LGq0j6wAfBBWo2FuUAnJLi8jYIPKW/2ZMVkPmHFw7d/1A8GvGi8Csv01hD5gHBMk6R1QUy0/ja0egUumCvpV25C94AIhwNkCErRWWtINv0hBVpjaLp1GutOvNQJLXrNlr/EqPMK2HIY8wCnpOaRduArncHthfXLAr9KbIXnY1wBvk2bO4t5/0sLa7F06qXhA//AqLCV7tbwvkdSoaBylkhWAE3DjAG6AqUg6WeuPAWby2SyZJgHXkkIjtsOfRZefaRQEZPtrCASMhIR8hvwEHKXnN8ahAlCyFEjVXwEuRAJmRCjAH3aInjR+qXUODhk9svukW/UPgS+KDM/oULqKxM9oHm8EotUHcTFLLEmgWqBklgRLCTx5fYbwDDj2cqLsAE/AIXrl+nONIv8asucE3DiAG3IqsvE35EzKeTNxAvby8pLlARaFf0wRAYMiYKCg0vvRR/3c3Nzd3H2TnkhOocQSjJAl5iu/fm7v6hVubm7L3VZ7h6U+AF0tvhmy/mQGAUpkIWhS8tPB9SczJcYFngMyRF5H3a59qM29FHv61GUN3FObIPVECySP5FqRF3MwYJUbfpa7rdm6L/lOGQWahX+1yJW5uEj2LCYNScKbWbuClGef3XsmLU8jFCQe2B6bB1fRu2Zb9DZWGFpWAE7Apli/f71Msm1PSkpKTEzEemEc1t7ECVjejtCIRPLr6sbveBoB2f4aggdMtUVXwjY6TF+2/UDY0ZUTP+i39boUZpZ0EP4gOeYq9o6bNWt3YEho6NE9O1aOnuJ44tID+iDc9o05UciEzMkVKnKTz1zKl+PMeucSenKfYlnofS7Mvnnlck45SwNC0bXIFNNHgiW0MHWF7WQHz62Hj4WGhh7c7DVryrS1quxS1rsM/rOUS0Iex7sM2XINEoU+XubVs1A5+MXVT65cuHJXU0bSfYZ08VTjbXpfWCCNtQGkrACcgJ+uGc3lG1t7+H83gJcHYRlLyTkBG4ukeD5/EQHZ/hoEARNd6eP72dmPKwVKSyOGvPLFEXAMkbmQO9EDFUX68MyaxYvWRxRWwiVtadb+5Qt+2Bb3OO/E0A5AwHpyxWeoDslYcmSxw5giAUu3EZGxMaNsZE/GlfA0OwneLaFaeErUUY3aY5iLX/StaqBwUpYZ7Wk/aXmIulTus4anMLl7+z5+ZXocyw9zj5n3K/0WqEgg3p2xYWhnz1Q9P+td5F8U2cu9ICsAJ+CXC6yxvA01Hn75+Ph4e3uzr0aRedMkYAZ9bTHUPjYKwfBMPj8Csv01BALGwUgS72Xu+u7/9PLJFum9i7sWLXZISC9Fn1RHRIFQzYUdc7qOcMt8XMKi08BklNC8CNsOs0MOTWjRssU7/cZHZRKaE/Jdh1kRJdfWD+0/2u7zFi1atvzqh6z8ssqSq+ttBtgM7dmiRYtXBq8uKK8k2gpV0GrH8Yscxi9cMrv/n//8xz/8uc2cQ7kioeTh6akfv/3Hln/4i737itHWBxNTPW0XbY+6WYWRbirmnd2w3HNNxONKkdLz373S4pUWFkMdD+bQyx7d3v5jiz+81nFoRDZkU7iyu/Pbr7do+UqLNn8btllFC5Ln95u3L+2eLmPd0C4/pOapl47u0gIud9lyGwd5Pb8Uf8edsgJwAv4dKJrIo8zUy0FpAy+VaRKwvBuSLAxOwAauiL8ne7L9NQQCppToqJZoLntP++7Df1gtCs0uQ1eSUAjJoh7iGCuY7HM30Hlsr86dO3f798czd6mvpecXVekehH7bocN7Hkm0JGffwplzfM4/zj3ybccZEcUqh56dvp8flkczAr7rZbUksrREMecjywkep++TjIDhH/dcnkyFypRATwd7Fyf7foNcDpVWkoJwx4+s1v1Udd174pB5Wy5UaOmFTYPee9865IJqua2zb/SNagLTlqhYrDrkumDVrqzHV3/4zGK1gpblJK2cO3nt4dSSu3t7vjIhlvnhNDts+YxVwTcFqss8PLN3v0XJt5Pm95+3V5VNMjZ83cV5R+halxnbbxWJQlpA9zHBD3kf8O9Ra/7scyMgCNBpwm6Xbf5zP92UN5omAcuSOHHihLwKhyyhpsSbp90ACBgYAWPHLMZsyU8+Fi1GRpayAC5jX500MYmFc5HYqkoTfhjy1Sf9hq4MVpfmhNt0HLr/AaWV+eFr3Nx9zj/JPTK048xTReoVo6z3XIKwcP6pBW/Y7ygoSVthZ3XoJwj7Pjo533zM/nKhShW40tF+kZP9tFWHL1cJYlHq+lHW667cOjV60pIgdY6Wksf3Qub0sQq5kOYxbIFv1HUti3SLhUl7l7quCsq5HvRFm0E/QMfwLveJ4xd6RTy8Hdir5RQkYBxNVvlQFXn62LHQfX7zx/RbmHQraUG/uXtT7wm3Nw3puuho0q5lU+f77goNDQ299ACy2gDSruOVsgJwD7gOdJrBKdm/ysCP/NXwi27iBMy3IzR8Ffz9OZTtryF4wDANifW/wkHMhFc+DrkDPbVAv/JiFTDaOTv6aHj09TwtWAtCdcUJu5bOXbrj+rVwmw6zIwkhVfnhaz3cfSIf5x4e2nH2qSKV52jrvZfg7sLzSy1H+ueVqFeMsgq5Bo9rzi9tO3ynRqhUBq1wtl/sZL/YL/qGlpAi9aZRVj+m3ggfOWFhkDpHR0lBdujcL6wPXlR7DFvgH30DCVigpemBS+cv2Rz5JCv4C7Ne9svZ8Oh1R+JvlWYFffzK1Hjmu1dkx+xc4zBnsZubm4vj9zb9wQN26e+8O/UuTfcZ2nlFGim9EXPE22358omff2h3PLuxBqLKCsAJ+PfXJmN8g8y48iAsY3G3TJaAmUjkUdDGqFU8z8+JgGx/DYGAafnjxOCtPgdSNOCZHhj4r/lp5RgfYxoJ7jG6whXZx1bPHjRu5eUnZZTS6qLs3StnuPqfe3A3bCgj4MpH4Ws8PHwin+Qesek452RJqnO/92f5Xyqj94Im9bVZr64oUTr3/2DR/qvlJDtwkvXXW25ToUoVtNLJfomT/WLfmBvVlGrU3iOt110vu7p20kjXncoKHVHuHN7lfauQi6keti4B0TeriUBoZUbc9slfT9ybkFNVfnlJz3c3X6ak4n5cYODRyBtl94J6tRx45AEOyrp7ZvqXE3wuZIpUPPnDJ198sTDlVqJLv3m71dkkY6PNe/P3n9q71f/cgwqqvejZssWUxEZygFkfOigLJ+DnrDImdptUt/SjoI2odCZOwFeuXJFlYyxtIiPSHgPJqmERsFB9XxE2w7bXfzp36fbu1L0386speXApbMOW1erscmBfaZkLofRJ7pGVwz768P3OnTt/0OOzscuDbxeW6/LCbTrMjBaoUPUgYq27h/e5J/cPDe0461RJ6vL+Hb/4euT7nd/pO3F96t3yihLVsn4drAfbvt/5X9aTvG890hIMQTuPX+w4frFv9C0tJZrUtSOt118nVY/T9s8Y0LfLB527jP3e/qOJUdfVHrZ9//X2vz/o2rlzlw/62oz0O3u3qEJHaHV+xs6x/9Ol8wc9v5uyLvlema76mmuXP/+795ch10ShMjt48Yiund/r3KXzyKUr5o4ZcVqZuKD/vL3qbCFzvU3nZfE3oxaN6w8v/aeVy/G7ZdwDNpAaYurZkI38o0eP8vPzWbejURTaZAlY7vqtfWAUIuGZfFEEDIuAwRjgdBxcUhl7fMHlZRNwCVyB1ZZxwQppIWdc4gK9RX1JWMBaJNKSzKJIKkvUK0d9vjcV3g4rNRNSXqJaMdrq0FW28AW8EgdXwyLMbL4uwsgcbliHEmcjafPvHHD4aHpMPsFFL9l8XzRfeLd+zpI8x4ktBsLW4MDFLOWhLlAmAaLq+F6oZdDnC2dYvP1Fhfh77tfDxj3g34OicT9rpP6VaRIwaxCJosg8YM7Bxl23fi33sv2VQ9DSJFVkK/+2VhijhHO/9qaXcV3KDa5aAQOM9RNq9XlCAsaBWno1ZWQs7bUAD0hzg/BZtukPqSy5tGKUFesDxkUraUWJcsWovod+kt6CHI/sjiekJTNwYUxafGPr1EkO60JS1GmnvCYOHLfvDrYD2JYLOGWA0TM8jj+YATiEQWLI6KxjG3d/gP5sbFJgKF1KTdrQAfu6MVH21MsA9Kl3MBQZ6bPMsswwFDAErawJSesfBR3gH9NFgEn/f/effYQf9tUoimviBMwHYRmFFv7OTEqGWBRrEzCOL4aa6P+aNRuFbKRtZBEoWFdZcfvQOtfoOwQXqQQaqqi4FbL+/7P3JnBVXNneaDp9v/d77757W5N8/b2vu3NbTY9Jd1pN0jdzA0YzOIFmdARNxFlAjeKImkGNCM6zggoOUUFwnjgIDijDcQJklkGQ6RxmDpyqXe9ba1dtDqCJyBmqDrs8HqrqVO299n/tvf97rT0tuFyABiemEMmzLZa4LnRz5Y0DsyeN8PAYNmb8ioRyJNq2D2rjWqDNE+pIUNo0sJsEjtGO8w0sjEnE1k2r5HACbgWH012IePCFOFSkWNoI4gSsIpXYTJT2BIxWkWygbX/GBZd0QlPOZjLYNGC5RS/zDfVPU4tX+QWbGw818ekT9FtulDyUqG2aAOsFLreiZEsd2VhOIaT+ol9goS4RbrSOkRNwazyc7Yoq3HIpynZZQKVJdk4LmPmcjx07ZlkBqVQJXKzOIdCegNFhCpoXRXHrc67wAB6di8dhb2PHKvS5QkcyJAqW8sA0UeKlN8Ez3P7AdNMWCC5GiSz9sAfbv6rKO0Q67jHz+LCZN9ftpzqlrQraKrlILeB2uuYErEpdWl+oLDxoxrB+6DYI0TkJmCqAqYFd2gBAHqTjEXgYASs6Fwkl4Pb9go6X+7ElgOFO4GSDZaRh1WdwtwrYOUydrziWCryyQvsgAQjZA0AxgdWbNeyDJlJpSnqZ/q5+w4H9r4woTUxtaV0RctE3MJ9awK1tYE7A7TOGM92hTW2lzEPzklvAqtCvVtSgCrA0K8RDCJiOyUW+2vqsKy2Zmk0fuIxhgUt0QcMWSFC/SEC2MCAadw+EGyIOqmqbShkc2IVQhJVAcOR124c0dc3qWVEih10nrP3FK5ufdaE0jC7oJBFS2SpJnIBbweGMFxot485pAdMMJopit27d6LlG1eOMJcX6aWpPwKwPgkjS9mddy/V3y/R3yzX7ocKXsVSk3C3TZ5QlZ9B0lenTy/RpZXq4fPgHnpcRgJOUu6Upj3jyUSGo5j4kHNKSUaYkqjTl7v24lPW/ePXsqAVnRy8sjE2C/CC2YmBOwNYvdaoMka+EpQq1MLrt3r07FYjdUYV8XAirIvAzBPyM64lhs054zDw5bJZGP8eHzznlPvP4MN/jw2aeGOZ7YtjM48Nnn/CYfXLYrOPDZh7z8DvhMfP48K9PDvN9RAJnn8An4TE4gc8jnlT7/RPDQcLjH8+CnmCPmccwRRt+8er2X/c7Pmzm3j+5F1ECbp3BOAG3xsPZrpinkxOwKlRL6ZYQsnz5cnauCsm4EDZA4OEErIz15ZWvDSB3WJB0yBUt1PdOXU4I2JKwZOvVgC2pIVESkeL8Aot0Se37+3kecJjC7BIxq+Sv4kEv7RJzZyNxWhc0Uwk76SxU/H21IsAJWK2asYFcMJRbrLidddxj5vXvd+Yc1eUc1UEGwLFmMAqaE7ANUFd/kKyeZyfql1mSJOckYKYD5prQhDK4kE+GACfgJ8NNi29FDZy+v++IM1/MK01Jry+rlA1iZUrWRV+wgOlNy9RxC9gSDec+Z5W/JpLpnARMof8/87L5QhyayIWdFJITcCcB1NDrsrFrUcviwpjyPO9LPoH3Y9AF3TpJnIBb4+FsV8zQCg4ODgoKYpfqT6dzEjArnmw7QnpH/frgEj4BApyAnwA0rb6C61NT0sWVqnGWM/qfRUJgGlJskrndLFBOwFpV9+PJTRciJYQEBQUFBwdrqLZ3cgIeOXIk1aCGVPJ4WY4/1YIAJ+AWLJz+DCZDy6t5wV+YBo0Hzm+Ox0FY8gMWUHACtgDDmU+jo6OjoqI0VNs7OQEzTbATZ859XTVtnIC7kObbEDCQrTzqmUgEd0NKkneXsgDFdgRMDXBcEQVbBjj2XpBguRS6cApjCygNAAAgAElEQVS6Q6H6wWVEcYUQFBlXThHxSaVyovm41QRmizQ86SluG0kXMYXOcQoWvYkLm7bEDouc4i2IShYSBBdgUy+6toksokgEAZaAwcDgDzaD4A5dJIaGiXE9qdgdeo9awPQVOe7WS6F1KDR7PuzMBNyyGoOiE3siy+OyGwK0IpAsdkOii0TRqsx2la/dEsgj+mkEWAagBNz+YdvlAdxsCliK7hFJyUik647JS4DSDayA22DLZlxHlO7ziAuTCUh5sJgorCSKWz22l78zd5D7BUpRtBGA1SEsbYo7OqPwlrO7QBRKxPAgjjqHR3GhU4o0TS++ji/KBIxLrdEWCY0C+NkuB63gaVT0HNs9dom7c5E4JwEzTbz88suWNNw5rPjbKkWA1b9sO0JOwCpVlW3EYhnA/gSM1b3cGY3cg93TCgkg6cLO0LKfHAkNHoMVvWFHDdxLkj6NC3aLgg1Ii4WPa4Yrfntc35T+JFCCpWwLq5zibQtSBoYVQTa6DjleEfoUPIqig+SwrTTdLhrHpdsgLQ/PQDQZkiTtxINdPvxpNd11ZgKWJImNglYT5lwWKyPA6l9OwFZGViPBsQxgfwJG1yxskkGpFP2ydL1tKhRyE4WROs/pOZAbdVMDp6HFabHRsVVhRzlg0XBgXOoqBmIECeA/DliT7VtcTBx8t9BgwB8oM6M86JOmLQloV8A9+iia7Wjr4hrcEB++/YjFya2auLaB0ZWw2t5V8bXTEjBtBL377rv0hH6rWBFctCdHgNW/nICfHEQtv8kygP0JmEAvLqXSlj2nGo0P8nPLTLILGixg2UqEJyXSVJmRrE9JSU5J0evhk1Zc2ww9rXDAk9ZVBTIpFQANWaBHQkSToTj3dgqIATLcun2/qlGOHxoEsPMHCIQ2LL5Av6hVTL+hd7imvOR+cVVTc/W99IJqkF72tCuvWDcpjwxNiY6E4UG9no98Wk0/OC0BW3qemXrUhDyXxWoIsPqXE7DVMNVUQCwDOICA0d5T+JWafuKFNaOGeWzMBEsYd28GzgNbEg+J3At5/ak/feTp6enp5enlOXaIx+gl++5W4Wgn+oRVwYfdsoB5gU/FurzT4VdKCCH1hQcWjXN956MvPMd5enmO9hw8bcmBtJJ6Iglo5NIRZEC/pOH+xcir+aYmWXz5D2y9JZrr02OO/hiZUll6ZvRL08/IHc30CfB0280FbVnbU/BAE1o4OAFrQUtcxp9EgNW/nIB/Eien/ZFlAMcRsMxLEiFCZqR7v78NcQcClvuAma8XnhLFe7veeGrCZeqmJUQsjhnzz5e/vw4/EWK2+tBhWTK0TYWiHwf8anIsEYCAFyxesetyBbYR6kovL/3s05mbEmqAuOi4MLnNID44N/alGUcra1E8KiQa0bKZidthlp4Z9dLUM6z7W2lr2JMFlWQC79JzTWR35yRgpoCRI0fSTMDuaEIrXMgOIcDqX07AHcLNaR5mGcD+BGyW6FgqpFPwMFdGjvvKd7mPl8eGbKh0xFs/+s6LKsZJSHQuECF52994yvsKEJpgFs0CKd72ye/8TkmkvuzsrnnuHh7uHu4fr7pgNtUd3+y97nyuBB5hoejC96O268uzY/cFzf52wfwRHsPcV52ryT4wdZi7x6TFx/Ql2G17c9Uwdw+PcSt2xJcSIlVcWTJyS+Shr909PMbPX5eUn3Zk9ie//bdeH477/kpBYdjChctDLuFiniIx18TvWjb1q80ZdSKRbm0d9bm7+4i5350oFEvPrJry4q9eeH3gzJgHIjFm7wua6eHu7u7h7rE+gZjrb508sDf8ekXJmdEvTj8hNJvry67sW+IOx5Q914rsRsAwpBtdDHwesCoKNaNbNgiL3VGFfFwIqyLA6l9OwFbFVTOBsQxgfwLGHlbYH4K6mAuipn/wfeLNqO/Hum/MBj+u2GAsuF/VhOajPOyZ5O8EAhZgyBKYyHd29v79yBMN5qLbO6cOHBUel5d9fNnzPT4Kz67X/zh/0sTwQjBSi3ePeWFSZF1BStiYf70+d/u5jLxI7z//5e+fb05Kv7p98VS/pREP6ot3j/3DjD05aVdOfT110g9RtxuLDrv96tfD113NvXE+YPyEhWGX81K2v/2rMYfzS+tqCvfPD1gRcoWupi2SpgzdxgUzZl8pKj88++1pW/SZtxNX+o323XH5ftqPH//Ra/uNnNrmhtsnl08eNSfySl7m4Rm/+I+BR3KqdZuWzQuILnxwduyLM84KpPB2+LzBPpEpudnHV7w7asM9e7mBafVOV8KiS1Hajfs7WUic0wJmXghOwJ3MH5p4ndW/nIA1oS+rC8kygP0JGKsacLmi4zNxybhNuQJJPfbDOI8NOUDOwLEwBktJM3Dyve2vP/3UU0/B/6d+8fQvnvrr0pj74PiVmmGyDxxJX//hw+1ZQmnmsYAp48/nSFJhxNDnp8QQ4V5y+OLJnhfyJCLd3/7x72afkSSp/vaJFXMDgtNvRgz4z4kXRDMhpWfWBCxesL8w62D/X7lszSRiff7++YtW7rpcVvjjgG6TLxMiNhTsAxd0fCUVkTRnXty80M/nUvLZMS/NiKqsE0ld4tGguV7Bt7NOj3lpelR5La7FATOqYDKSFD/u6Xd2ZlXGbF42b3F0Ycnp0S9NP01Ivn7ThDeHncjANNMhX0rC7fOX7wdsH5x/JhbWILL0P2ulTfQzaeM/t0OA1b+cgNth0yVusAzgCAJGYgKubdT9MPirFQf0Kfqja6a7u80/n1tc3wxVkWIPyOOwzLk733xq4hWlo1TusRTEhvK0PQHj3nq5b5/ef/lf/+O/t2UTkyF3w3cz10bfuR06yXNrCpFMBSn7lkz2vJBDRJK/4+Pn/c7CeKpbJ1bODQi+e/Nw/27P/7lP3z59+vbu02/W+lMPso/07zb5rEhIQ+H+hdDjW1Z0ZMB/To6Flwr2L1i0fNelCuB7MxFqru5b4Tduw93sM6Nf+vsf//6P3n169+7zr68Whefknh3zok+UoR7GPBckrJnx+Zsv93ml95+ffeqN3RnVsZu+9QcL+Jzniz5nAYnatJhNn/fp2+fPvxuy6FyVvUZhWVb4DHBNZH3ntIAt9aHkfrkkaEIrXMgOIcDqX07AHcLNaR5mGcD+BCyvaQW1S/G5tUunenp5enoNe++VP/7+zVlbIvOqcPUrsI7hhHJ1M7igJ14Ch7SyloVEiLnh5oE5H3+2Oq2OlKXvGv4bt61ZIiH1+ojta1YsnzduVtjNMkkyF6SEL57keT6XiKRw28e/8ztNiFh/88QK/4DVGVm68X/6YHehSMy1OclJ+jv364sO9e8+8YIokIb8/QsXrdx1qbzw0IBfjTheAzbxvgWLfth1mfYBN1SkBHqNmLw6ttJ4bc6/Ptl0p4qIpuJ0fUJCbu2DM6NeHLe3oFY0GU+v9vlydlhWg1h8Y7XLU2+FZhhjNi+duziq4AHYzafNxFiQEnP6elmjKCZv7P3CV+fslcNwbJvcorFXnNaJxzkJmGJDCPn++++tgxMPRcUIsPqXE7CKtWRD0VgGcAABA/Wyab7UFy3dPfa9l/smGIQlCbmxm0KuVNCHCIEVlM35u958yvuSIND+Y7QWzEQwZZxe7d7P3TcgYP7CyYNe+tN31yA0Y2rUgokug6YeyKgwSURAAh57PlcUpcJtnzw/84xIxPrbJ5f7BwRnlFdfCxs/YcziJQvmzZz+/f6Y7PrCH9/71eQYERzO+xctXBFyqaL62vSX/vrZ/OCrdwvCF3i7u4+fG7A4ICBgwQLPOYt2X8utI2KdPnLOVM9FAYsWzpm+cMvh21V1NwMGvDlk0vyYu7WXQhYPHzpiZsAS/wXj3u/xX6uvVek2L/NfHF304OzYv/mcFUjZrciAcaO/mrN4kffYT6bsym5xvdtQ+zRohJFcxUNDzk4nJ+Bu3bpZqsfmuYBH4AgEWP3LCdgR8Ds+TpYB7E/AuKKUANOH5AOW0agtzkhOyKnFjuGy9Ji4LFyjAh4AL7RYn3sxQl8BK28oFjCeNNYWXzsbEREZcSE5Pe3SyVsPgKDFSv03ozyXHdHXQgcxqTcUpt1IKqsjRGrIu3b61gNCRHP1g4zU9Oxak0TIg6TIyKORx+OTso1NImkovHRMX0ZEYm4oTEvLyK9oIg05l44fO3k6q7SuMDXheGRERGRkZETksZOnc43YZQ2kX3HjeHRERNSFS7fLTYSQxoKk81GRkWmlYm15zuXTkZGRkTG3crLiIlNLm8tyU1NT7zeYHiSeu1FKRNJcV5h2MSIyIjLy3J1iSLWdMwfvA7Yz4A+PjpYFSZK6d+9On2B3Hv4Cv6tZBHCYi9y7dsR1QqOxhloWdDl5kUhbnnHB4SBWn2CpWcicTnBHEjCu0CiTL/4BdOlN2gOKdi4Ox6JTlaDPl+01hMtDwmv4Dpzg3KQm5k6tyjgzcfbi83fKcGkMDAb3IKKx0GBxvQwagPIbhCcf7B28x+JR5EZR5JcpjjhgTO65RmFlITEamgZqYrZY8BiZHKUsE73FBp89SZ6Tl+uUYN1Mlka6ILUMMiaRikcj4AT8JEDb4h2a+3gHsC2wVVeYinePiCTSdYLJUIOULJdYQsi259wsKhZ1yc6lsQoCVL+SJDnAArZKAloHIq9aJZjuRs/+w1N/nhh0vrJTRNY6dE1d4e5ROJ0LVxWTa3VauFHrrEEgNzfkhgNcaSKhzumCZsrQiho0kVfUKaS8rjyq/Kibd0Fccrn+bpnFZ3P3f0FrHG0KdSaBS9VJBJyJgGndRXMr0ghMXELG6SRI2nsd1CoXXERFBkWZ1YUucwqXJdnKdzgBO1DhTAfh4eHsnJOxAzViu6ixfpKLafKKkAvjl5z3Ctj70aTv/jbwnFfAuXEBZ70CZA+1Rsqk7bBy1pCdiYCpIxd3F0YvLq2/qDfbWfX3qHQhA4uiKDQ1p4VGp4ZGV6TmtKJk2jBBiGgYqampd+7ckTF7VLBquu/kFnD37t05Aaspv1lfFuqDQoqVe59EIul0Oh8fH1z/jw5RVTqmrB8/D9HxCDgXASv9v1Bz4e5JmMUdj7LdJWDuZXODKWHJ1mtLtl5bCt+mymqlVpfbKPI6ZISwPmC7C/uEEXICfkLg+GsqQQBbyfJAE3lmpSSVlZXdunGTNZap08rST6US4bkYVkHAmQgYnTnQnkRuwQlO4IHuipmX7uMEuzPhphYSIeW3srKP6s6OXnhm1AKAxsJHQCmZEbBW/J1OTsD5+fm0hFP1WKW080BUhQAlYDpIErSMxZX+xeGRShsZN2VTleRcGGsh4FwEjHUVthlx4AKu4NFVCZjW27Rhzdi2tuBBxe2s0F6D97wwJHXXUTqXi+al6urqqqoqDdX2zknAdEFVqhKtNIWsVRnxcNjQdwaFhgokk5mfPD4C7QlYnpwG+x3AFJutz7puePrV9b98bd3Tr/KPVhBY8/Qra59+ZT2qbAPqbsPTr637xSvr8bPuF69sfPrV9U+/uuHf/lmVCzsv0ekPcmHHVcdoFoIsQL0IouocCc5JwDLuhNy8eZNVx5yJH79G0/qTch8wLYsW31pPF5f/oQg8hIBlpdO+f7L9WVd5IulD3+c31YoA9CKJQJvUJS93jxMiNJvL9HdvbDiw75URpddTd78w5EDfEQdfGXmg74j9r4zY98qIA6+MDO/z+ZF+3tSVD5U/HUStspQ6OQHz3ZBUlt/sJA4lYMu2l9wutlP8PBq7IvAQAqY1Nq5LAXPBn3VFA8muUvHIOosAG8QBpRc80KJE8k5fTguJvr094uy4gDvbI2i5Dv3DEFm/9DG4kBoN1RH9JrYKQ32efKclYKoYNgq6s1mBv68pBPLy8k6dOkVFpjmBfmsqEVzYx0XgUQSsDAKQtnMCflws1fQcZV2l6Jbr715fujUBB0InLt9lWa4ZAeMb1NYljZUtBEyHa1lsC6mWZDo5AR8/ftxST2pBncthewSUYgsxsTxg+2h5DA5AoD0BUyFk60ck259DC9gBovEonxwBKLbYdytKpDq36NLs4JxIXX25Aa1c6tyQ19AM6TVYaWyxsk5MhurDbhPAg80819wCfnJtdPzNFlUoZx0Pg7+hVQSozqn0ludaTQ+X+9EItCdgeTyOUvdSF7TqRuA8OkX8F9puFoko4A4W5kZTfbkBmFRuTwP1yjORJAkIGH9TanpgbpOh5oibN07kggU78FXV4eq0FjBDmuLOq2AGSFc40el0vr6+NKXqLHhdQQt2S2N7ApaHXMkjb8iOZ1wFNJnsJhKPyAoIKHqlfxXqhZ5goGflI0nS7l6D5eiAaOWPyVAT4eYtU7Ik0besIJVVg3BOAqYLo0iSxAdhWTW3aCawNqOgNSM3F/SJEFAqaifZjOGJMOjSL4EF3O4wGYGA291W1w3nJGDW7ccJWF3ZzV7SpKenh4WFMX+UvaLl8TgGAU7AjsFdNbFyAlaNKhRBaOW7ceNGVgtzV6SCjfP/tVQ6PXf+NHfhFHIC7sLKh6RzAlZXBrCsf5k1zAlYXUqypTSWGYATsC2RVkXYnIBVoQbHCcEJ2HHYPyxmy/qXE/DDEHLye1evXl26dKml6nnzy4lVzgnYiZX7OEnjBPw4KNn7GVEUu3XrRmPlZpC90XdofG0GYXHtO1QbNo+cE7DNIVZ3BJyA1aUfVuF2796dSsbuqEtQLo1tEEhMTPzhhx/aWMDcCLYN2I4PlROw43XgUAk4ATsU/naRU7olhEyZMoWdt3uK33BaBJjS25w4bYK7dsI4AXdt/fNBWOrTf5ual1s/6lORzSXiecDmEKsjAk7A6tCDw6TgFrDDoH9oxJY170Mf4DedG4Hbt2/v2LHDMhvQc+dOdZdNHSfgLqt6mnBOwOrKAKzmffnll9k5N4LVpSRbSsMGYVl2A9syQh62IxHgBOxI9FUQNydgFSjBQgRGumw7Qm4AWcDj/Kfx8fHz5s1j2UAURedPcxdOISfgLqx8SDonYHVlAFbzvvPOO1QyTsDq0pBdpGHZgDs/7IK3wyLhBOww6NURMSdgdehBkcKy5qWVLydgBZsu8Zep2zIndDLldPcziz3CITxR3gUNzukWLRCjJMj7n8HT8ANsbCrh1qZsYzS4Tw/YJpx+8Em6fyneobchYgEfgldoPBLEIcgByAHhH4gadh9nT+Keqhg1vA0nEt0flcmjPEtw3zeITY4H5SaiID+JacF0slQzAXBvOLrzm5IY/E1skccCH9jPRg4NgFHS9MQKgiRh8HG+gYW6RIhZAnQosoRIW59x6XwsTywef9HWCITiZgw03yo5S2o0VsNmDDQXY4lQ4X6UzrkZA60XLPv/2B1bZwUevhoQyMrKOnLkiGXbi553RjYimaFKF2WawdpdAoLBmzK5wY+iiE/iHTMt+Pga3RackiylDOTalh3DgZaQBc00u7JvQZQJWLkDQgikWdnuVgkZhAN5JCBsSroQBVA1sC6VXKQELBIzVk1KcuBdCFZpZ1CShbcECAp/klsPEKASNfI7hmyGm1RyCAqAIUSQzBggCo6NFYSLkiMNTmCNiifWDhVCIrAbkkzAFAgFr63PusoYPXEc/EUVI7D7hcG0RGFxkxukDYbqI7AdYUuDE3Kayg7nJGAKMiFk5MiRljSsMvC5OLZCgA3CUmpg+W9n4lNa0siaUMYV+4rFIbYySbHcU55iBEkNP7ykZIvBKByo/JVJm75FmRRtUjR5kQktvkAMOKh93XKFVqBs1MpGKZUZyJG+AeLSUzk5WEG1SEd/ow8p3Ay2JqV5CEM2ZFtsccrTLcHLD8EfkVrg9DdED5oC8EJntILv0lRLRLroG1iAFjCwOhrW8FckW59xaTG6Ox0dD0BtCIT2Goz5Sslc+LfRUH3EdYKSxWlxVZvgkpMTMN+OUHU5zi4CUQK2bHvR8tmZyAnu6U3q7+1fMva1Hj179nihx7CdJTL9odsXqQQiqs/bt2TsP3r06NnzhR49evz99f6bYksJEcTSsxNfXxwHxEW5VmY4OQwqInxLRDBlnd88b/bBQtmilTmTWrLAZsC3loay2Zy3Z0ivHr169OzZ84MFO+KNIv4KljN8kJ5p+6Ah++relbN2ZtUgHwP/QfyymYAnYlN1Qtict3v16NmrJ03ClIOFSHJoeINRS2WlpIY0DO54y7oOHsg8v3HWV7tzjSnfj/72WH4l5X9qT8t+eRqOgB77TuhGRk4kcT6riqgLGmSBEKlMO55zw2c6EQd/VcUI7O41GD1Lcr4EvQuiyVhzuJ835kpsjEEOUF0anJaAaZns0aOHXDh5+VNd3rOtQFTvNA6WBzoVJfKkUJy0eFXg7stF4F6F+t1MzS/Kc7IhWpe9fcaiNUeSG4ggEang5pYRb36y5WIpemhlDoXAZC8vQXcpyEh7TIloJkJjxrHlkzxD7uFtlJ/SZ8u33LkFJqTYEL/8//v1rxdcEAgRhILYrz8fNnXXlXoQjTId8BC1CEWxPv3CpjlewanVSFEt5A+VF3KxSJqqLm76xtfnxyL0S0vkzFfP95h9KA/NSpRFbm8QsfLK7PdnhqbkY/dbS1iYIkXUyqtzBsw8kFMu147YIJC93ZTJO6UVeBllgnAv+gbmHoszGWtMhppGY02joRpODNVbu/8LGxmdjokHoEoEQnoNbkSlmyqrGw3V9cbqRkNNzb3iSHBBy34a7BBRnfROS8CsWNLCSb9VBz8XyGYIWGrc8vyJI6REW5R8ZFHAnPOZtSxfNTUY7t8vrG3EzlfkILE2c8uM+cERKfVoh5G6wvAF08YviChuNOTeKayWRGJuqijKTEnR61PSSmpNhAjNjdWl97Izs9L0+hR9XrkoNKYf+36yV+g9tGDFmvt6PfyiT80qKMhJLygxmc0SIUJT/f3iolJD9s7x/fxPGxgBVl7b6jbQL760gYhifVVJTkZG2q2sBw8Kbt64kXzz+rGDgXM8g9OMokTqCm8m61Nu3s0tbSSENFfl5xbmZdy4fSP95OalM30O3gcOhWbCvcM+7w0JTm8WCakvTr+j1+tvp96vJ03Gu9Heb4xediC2zCQJzU3G4qzklOSUlGR9bhkhYmPVg/yc8oaKq7P7zzyQUyqJYn15TkqKPiXldn5ZjSB77CEOaq0+sWpkO5eQ5FW7D/QdsR8/+16RTw72HRn+yghqCT15FPxNFSMQNWj6gVdGUtXv6zviQN8R+/qOOPjKyHNfLWPllBKx2hLBCVhtGuHyWAGBkpKSa9eu0YBYCexkuGjkmVLP7fx6/NTVu0JCQqJSq4Aeq/KTDh0OyyhphM5VcMQKYm3Wthnz1xyRCVgktdf2L1/gtzY9LWrY89NOE1JblBDk/fmgL7w8hwwfsy6+hgilmafnf/ivoWPGfeE5pHf/aWfvlN6NWjnZCy1gqTTh24//9sE4zxEe7/QbONZ75DvDllwvrpaIYMjULfT3DT28d2R//3PGesUuJaQm4eu3+y25UE2ExsQjC4a+N/TL8XNXTPf4x/tjxowfO/TzoV8CATfkXl03dbDX2JFjR49Z+OOdkqbSs17vDx0/YcwMnx17Ni/z9dlfJFurpDI/0t9j8sX7jYU3QueNGO/l6fX5+xO2J96+evBbt9/+7Z0hfucfSLVFV9Z+NfC94V6eQ958znV2qpFkHF8+zn1jZsXVOQNmHcgtF6XCA9M/f/8zT8/hn45ZdjC3ulFxAXSWgEHFcutDdjZiuwX0oXRKUwd5J7MAf129CCjFHPpS0OGD3hzMF8qQP3kCgarS4JwETJUhSZK/vz+0rxUnlaqg58LYDoE2g7CsEpFZEkWh6vKeJSMHfrlsTXBw8Df+ngdyRDgwv8GoZyBgURRq726bMW+dTMAiIaZbJ36YNzcgRR/l8btpp4l0L2Xz9IE+5/OJUHpzV0RSFREeZEZPH/T+lnP5tVLJkUmvv7ggLiNqxaSxIWABk+LYnZt1ec2ksTA60G/yzGUzBw1bcaFIEE13Tq6d6xOsv3rA9YvvUmoakIZwjBhJW+H2jykHDMTckBg+57MRS1JuRnsN9dxzs04wGWO3+3p6Bt0pSvxuyOcbb9YITYYTm+b4zA7Pzz89+sXX5p+vEpurYzYvm+lz4D7QmmCWzFXFumXjhh1PSd86aWLgmQyRCGmn548ZtTa9AMh1d0o+IVJVqf7sgaO5BiKWHh/1t0HrM8S7x5Z7uq/PrLwyZ8CsH3PKRXJy4p8HHM4QBENW1NmrhbUm6hyU3eOdUBK2jagSMBQi1TXUr1+/Xq4HMBp5WFYnYuGvqhYByPkizESLjY3V6XS0zoc+GuydwBN0svA+YPuokBEwH4RlH8DVFostCBimw4qN5bl3Um7m1TQTUYwb9/SHkaUCMp5AOzVhoBYRhLrMrTPmrQUXNI4GITUJ+7+f57f27t2jw56ffFqQ6oy3930zfcQAd3d39+BzJQQs4KjFkzwv5ILD13h86rPu2y5FLZ8sEzARSs/5eQzx8Bj47itves3ffSJoxBsLT5ub6k5umvb9vtTaojOj+809a2jAwVZg+0li6grXQd9crCJC47XwpZOn7NJf+OGtYYtSqhuI1JCm2zLXM/hO1qnJr7/71sDBHh5DXV9/c7hXcGrW6TEvjg8rrCPNRt3mpb4+dOSVKEjmivzIr4dMiUtNWDp84FuuHw51d/9wwBv9+s9NyEr4eoDf7uR7MJ652XDr1IbxHu7uHq5/7fbmukxy99gKL/cNmeWXvx4w82B2GSEPzm77enQ/96Ee7kvDrtaY2BBxarFYMxMZjUYXFxdaD7Bva0bAw1ITAkojmAQHBwcFBbH6X00yPlwW57SAmcnLCfjhanf2uw0NDRUVFdateak3C8dJUYfnxfFPvb4/D8Z20IjAWKVzheuyt/nMD45Mgj5gkZDawt3+kzwXRhQXH/34+WmnYeyw2FhbUZSXm31iyV/+MusSMZdmRAYgAROJ3Asf+ax3xO3o5eN5k7YAACAASURBVJO9QvMEQXxwYvI/hwXGZOfmpvy4av6c+fvzys9NeWmOrjp13eTJZ4vMRCje4+0y+4SRWeJl1za9N3hOQkU9MTcmhX3r63MgT7/d5fNvb1Y1EqkmTbfJ3ys4LevcxNcnbtXfzsvNy83NLy6raio5O+alGZFl9aTZGLt5qe+M/UUYoig15xyY1m/IuvTyhKWf+AQdv5yHR1FJRWP5ldnvz9qZnC8Rkn0u0Gvo19EpOXm5x/z+5r4xk6RHrxjrvjG7/PLX/WceyC2TJLGpqao4Nzc7ZtvQfjMO5sG4aBgcjmPFrJslGQGzqkC2iqwbDQ9NHQgwN2cwHrQ8qkO0n5HCOQmYKoCpgV3+DBj8Z2dBgGmcnlhnLWgimRvKI7+ZMmbB/lSDofJ2qNsHG2EwdHNTfUNtM0z4IYSYwQauzd4+3X/F3thig8FgrLx9ae1I17Fh1wzNxcc9np96WiR3T3035uOl53KMlbHBf3ph+kUilGQcG/XWf/uHXCoyXPT7a69FZ013j62cDKOgRZK09i+/9Yw2GHNSTk7v/9tP5+8rrCO6xX/xWrpyol+EgZglIgrJ63v89hnfCKPBYKi4dWzGp5/MPnijHsZE110P+9bX9+B98c7agf/8KiS3rDBjx1SX/p7B6cbSiLku0/fmG8oKTq5f9vWcw0XFZ0a/OC3KUCuajLGblkydtDPVYDQYjUbDobH/9dKyE0WEVJ5fPdJ3U6zRaEw9vWLCyG3ZhuvzPvxk0YHE+mZJv2XSu4NX6yuNug3D//K/X16TJmYeWzHeY3NWxZW5/WcdzK4QczYP6zM24m5lRfIBD5cp++5VYEPGTA1h62a9NhmAs6914VVbaG3UTVtdahPyofJwAn4oLPymthGoqakpLCy0tH46XwVDIReluoKk5VPf79OnT+/efpfRli27GxO8fkVyQT3MpaVzYRsKDq+c+m6f3vRwHfRZ9F1cnar8ot/7y+NFidQWRwR+2ad37z693bddLyOS8CDz2OLhfT5w/6RPnz4jNlwnYlNe7I7vFh+9D7E+ODL7gz69+74z5NN5P6xesyXsXpUoXFn87H/02npLnomLVviVeb37omCffhuWUIXjpySxKe34jsCVp8tEiZSe93779f/+17+mfL9h7aKw3FqJkJvL//V2797//GTimuRKIlZcXjB8VUx1o2iuuf5jwId9evfp3Re++vTeeE0x80nG5s8HvdKn77/enxn/QCSkKmbtxP5v9P42Tqq8F7doWJ8+ffp8vHjjpumDvo0T8y7uDPA9WGi8FTxx9akiI5Gk9AOz+/Tu07f3B0sPJtWa0WEPJIxuc2vnOMtK2TotMGtLyMOzFgK0D5hq3Fph2icc5yRgih0hJCwszD448lhUhUCbPmCrlEwioZELYz3kqYVo89JJqHToE469hRvyIFz4Cz5oXL8CvvGgN4B36DoRIpHMpZnRAZO8zudC0Mpz8DCe0xutvqsSlvR+dVUurBFJB5rAwygKHRKmPAw/4wdYDpaJxik/NFgquSISDhnGW3TSMN6nFAmjR2U3OzrcQW42gBkCFCgoNFIcDyOLA7HSxEPjBU7ZMzgySsKpSHjPuvmnqanp1KlTNA1KSqwbAw9NXQhQLafi0fnWtt3S5uQE3K1bNwolL4R2y1JqiMgWBCwPqcRZDkA/Mn/JfxixAH3Bj8oNJBqZCSS6HCN9lxrLQEkSDMKKDpjsdSEX3qJvKu+3UDtlM7E262DQN18O+HR2TD4b5QmRwAsCxgsi4ev0LgtPILCmNP2VLkhpydZUUDkgJXZ8Wvbo0WYHDEWDNEKS5KfgHbzG+4ANLHcFh4C36ZPAvnhfbpFY8nxn5yG1y3OsD1hGXoVrILWTmd/oPAK8D7jzGHYsBCjcWI1gZURX+1FKPSGWBKwsK4+zHrBcKlu4QG3B6rLOrgnQMfH50zZBoKys7ObNm9Z1QcsZTDZ/lWxCmYhW8y0kBIlS7lGioXMQYVS0fM2yHJKZqbY47UZyWZ3lS8hKcnT0PuZSU7k+9mxU5PVyOTAMCOKjPKgUAYyQBccixdjgNj6HJ/AmfbrVO8q7dEVHjEDhTPqunFz5giXTAhHa4FCgkM1pOWpkcSo1vGrlCSJtCJiqwyZZjQeqAgSYyWtJwNDehJahhXyW5xa3HXiqeQu4hYBZo92iBsjPz2dVIa1Q8Ee0Eyw2dMFXW2pMB+qDR20VBGRdt/5jlZB5IJpAQBCE4uJipn9WCWhCeC5kRxFgBFyNB9O73NDEfhB6s6Mh2/p5JyBguZMNPH/UoyaPR5W1wBBE5xs2uZFvRVFsqmuoN1Tt6jVoy3OuZ0YvhLYSpWL2Dj/RJgLNzc319fWW5VCdxU+b6GpGap4BNKOqTgvaXteybYabadOeF8bTnY7NagE4AwHLK+mAbSt3vbF52XFxcQwquVsK3WwN5cZCXeJF38Aj/bybaiwdf+iOZu/wE20iwPqAmemjwrKnTWi1IbXZbNbr9Uz7lifaSACXsoMIUAIuwENubbe4QulGZnC7g6Ha/HHNEzD2QNG+K/QhU0c0/Sake/fuFHQ2DiRj36n00OiU1XvPj1tyP15PFQLMLX84Ads8z9khAkrArNqVC6QdIuZRqAMBo9Ho6upK9c5qABXWv+pAS/NSMBWzPmBIEoxsaHuoLalOQMCtIG6DuCUB39136uLMwE3/z5vrfvnq7j97XPQNvOgbGOcH3xdnro71XcUu4/0C+UfTCOz/1PfbV4bG+QbG+a6K9wuM81kV58t12oUQOD/lO5//ehNUD3kAEs4zgKZL9E8L31hRRWmAEjBrebehAxW2wJyIgNHqbaqpP+w64Yibd6Sbd4Sb98z/8VIEnkS4eevXhO/rO2L9L18rjE0q1CUVxiQW6hLhBD8FcJ5Iv4tik/hH2wjokorwgyoGzcIlV2vXQUDJAEVYrmlm4BnAWRE4OXw2VvgT1v1p4Lo/DYxw8z7iOiGy38Q438BW9hl3QdvEAyBPogAnsslYc+hNz+q8+20+Vxdvvh0SVX2/tCq3aHfPwbt6Dbq+bDv1S+PaAtQFjcpqNW7dJvLyQG2NAC11rCHMLm0dLw9fJQi0qXbZpUrE42JYF4HQXoPbVPjVefcrbmZGuHnLZV91nb8yANq3gFtr0mSsiXDzbn0PrvRrwtN2RcnlEG3lW5sPbXnOtfjyjUZDdVO1vL86Ha/e/nV+R1sIsEFYrOaVy6G2ksGlfVIERFGsqamx1P6ThsTf0wACIb0Gt5fyUVzQ/kkH3ulCBJwaEi2bvLgUDyxKJEnnv1p2xM379BewbbAyckutjSUHZhOtRf3QQVgq7AHSGq6akZcuxMFdIJpRWOcE5QTcOfys9/ajWj1gAYdE0yV3FK7FHnpYPogxLzeTrKcJh4aUnp4eHh5OReBmkENV4ZjI2UpYlhzsGFF4rLZHgBOw7TF+vBh+goBTQ6PZYniWlTI9tyDhx4uJP6VuBCwbU0zd6haZS2c1BEwm06FDh5je2YnVIuABqQkBTsBq0cZPETC6oJW1OhSPs0y8LYvrw7rQ/NA+Au0JWPtp4inoMAIsG7CTDgfBX1A9ApyA1aKinyDgNCRgASdn0w1ZFKu3ZRUOXkrVosjOyXH16tWlS5fSMKhOeQdw5xDV6ttM+zwDaFWFjyE3J+DHAMkuj/wUAYdG20UEHonjEWgzCtrxAnEJ7IsA6wPmBGxf4B0TGydgx+DePlZOwO0x6YJ39Hr9unXrWOXbBRHo4klmBMwHYXWFnMAJWC1a5gSsFk04VA5GvezEoeLwyO2NQH19/fLlyxn70hN7C8HjsxcCnIDthfTPxcMJ+OcQ6hK/M95lJ10i2TyRCgJM7/REFEXlF/7XCRHgBKwWpXICVosmHCqHXq9fv349M4BoLexQiXjk9kagDQfbO3oenx0R4ARsR7B/MipOwD8JT1f5sc0gLE7AXUXxSjqrq6u/+OILSw5WfuF/nRABTsBqUSonYLVowqFyxMfH+/v7t7GA+UQUh+rErpGzQVi87WVX3B0UGSdgBwHfLlpOwO0g6Yo3LE0fy/OuiEWXTHNtba2vry9tcvEM4PRZgBOwWlTMCVgtmlCBHJY1Lz1XgVBcBDshwDRumQ3sFDePxr4IcAK2L96Pjo0T8KOx6UK/ZGVlRUREWNa8rDruQijwpOKyd8wO5ng4KwKcgNWiWU7AatGEQ+Vgg7Asu4EdKhGP3K4I1NbW+vj48BaYXUF3XGScgB2HfeuYOQG3xqOLXul0Ol9fX8a+Iu442UWx6JLJthyERbXPXSBOnBE4AatFuZyA1aIJFchhaQCpQBwugv0QqKqqGjRokOW4d8tz+8nBY7ILApyA7QLzwyJpqWQlOKUE3HKTEIlIEpH0a8LT+GYMDwPQdvcIagR0QXUA1xJsBynBNlRgnuID8Ee5yRSHv4n4i3yPvoxvsqcgPBomRmERIJFjoY+KRJRloVEr4SovQEQYFsikRC3Sc4hXfg53z5Kv8Y+EwckJpInBEGyHKQ/58RBgWYR5Qeidx3ubP6UxBEJ6DZZLobKXLCGk0VAd4eaNeldKv/qS9ZT6ROqYRIQQgZU2kZgMNZH9JhJlt18i7zgo6dfs4wTcMWQ7/TTu+SiAKoCtkAJFIhLRTMxExEu5XAA9miUzUyMtSyIR4HH5gz+KkpmIgoQOZYLf+CVAHoB9nOnTEhGLi+9fuXYFswHkAFESMCpRgKgVtsUfRAiHRq2wKUQpKDdRdnxdIGZwZtKdo+noHomYIffRTCbRE4mvetjpnNP5ACzzkuV550PmIagQgZAXgIDbHA2G6iP9KAHLv0CTWmWH5gmY4gkAYzXYaKgO+f3AON/AePzE+QbCxy/wiOsETsB2znvAiJQSgX6BqIAF5SYRwZ45+UJhMEprcKUQHT1HIsa7EB5QoABGrBw4C5JSoEiIIPcBI9XSwqdwPV5BqNAoYBf0mRbh4AxYGVidiGjoimAIy2mgvwCTU8mV1+kNvuywnTPaQ6JraGhYv3490wvomx/Oi0Bor8HxfqvjfFfRCv8iVvsxU5YrFjBkBNmhpTIQtE/ArCZFy0ZsNhfqEot0SUUx8N33P39TqEsq0iUV6pLqSspVBr6Ti0MZCzkLKZO6ncEGpvxHyUtxDiOpyUao/ABlP5kFRRE8HfgOdXkwBpW5lVq2tM7Vxeh8fGbgufyYSAQB7WRG5rIcYLEqXCy/QK+Z3xobA1QkKjI8ppA/nNJziJ/6pJ1cr1pIHh2Exf3PWtCVFWQsuXIT6nxd0tpp89ZOm0fPC2OTyvV3aYUAxRSb7FaIzKpBaJ6A5Uq5pWbE2hGNFYGQZ7t1s/BMWhU5HtjPIYDeWiQnoDCxLOv4uFef6dat25tTdj6oMtGCwQxTrCuR5WrSN08Z2LN7t27dn/nj7AtIdWb4VlSMZie1PZVbGNadCP83/9q9e/fuv/v9rGvNzfUNdbK7GP6AxUx7K9C0RY815hT4Kjrg/l+/6d6t2zPdXx7lf+Q+DRV95hK8iNKDq1mqyD88z2PR9UqFcZlMNChJxN5i888Bw3+3OQJGo9HV1ZUavqAcPGweK4/AUQjQprlEgoODgoKDsARDn5Y8eAPzAa0BHCXgo+LVPgEj12Il2aoz2MJCwXExOJLmUSjw+7ZAAHM87SKVCGkOHNVj5MqYSsP1xR5jg+KL5bFNwI3MoBQEY842nwnT1+tKoQzlr3z/uf7fX2qGnlfajmJPgp+ZFjqsWkVCcsJ8fFeEpTQK5pYxAdCZi1cyz7NeXlkqiRBT8o5XX+ox/XAVBF16c/30z0Z9F1HcIBJwQSsED3/NhAhleWEz35+XUI730T3d8gzIAQawCvuZbKFcrYSJ2QNH/OGZVsTmcnYIAapldKwpNQW22OVOKfRh0dZYh4K1w8POQcCtfYhKpShXxIgiOhntgCePogUB2uSk7l2x4ZD33yZfRNuRaksQzMWZ1+5VNKFzSACTVmzKjv1hzCDfy8Vy86nu7v75k9ckVopic+Xd5CuxOt3FizfKGolori1Iz87JuBEbq4u9GJdZUv3gVoTvRyP9gvfcuXdPH5eZX2m4fPna7eSEK/G3yprq7t2MS83MuBKji03JMhru6+Mu6uIu6Quqibn4oP/IRQdvN2CHr0RIdXr0mC+mHNAXm+vv65NT9deupOWVNdYWX0u4pNPFHj+/cWb/OdfKBUKqcxOvXtBdSLieVyMKpLkqJzM7LeWSTpdeBZ3F/FALAqxqVmf9qxaYtC8HbZvj3ApawcCoEziUVjTtEVNbQjVPwAAo2kcK1GDsKJhLmzZtoohzA9j+OQ97R2kpEM3Ji995a8n+k7uCg9dEXM5oaCbmpoaEiO/PpVWjdxkt2qa65C2TBs04VCJbmCJ2w0qSWJt+InjSyIlTpvlM/eTj2duvl1bfWe011nPqDB8/38nDXhs+J+JcxPeDX3rtvY89ww4HunX3WRUT87+7/faTj0fN8Nmmr0tb5vY/B01dPtdn3IAhY+Yu+n6Jn99Xo97/YGJIYd6VmWP8D94uaoYsAx+xPnX1iGFzwm7XZ252/ZvrZL8le0/FXQ7x/+iTCT4+PiMnDfmk/9zrFfW5CVv8x0/38fHx/HjSurjshsoE/1GfeY6f4ONzMI+PgrZ/VmsXo8lkOnTokCX7cgJuB5Lz3KBEKxEpJSUlOTkZ6g95iiAOvaKMQH2lKku0UxBwO0xpwZMkqRv0Abcc7R7kN2yIgELAUByaTn35v3oPXRS8IWjBlwM/mxmRBi5f1lJCd5FImuqSQqZ9svQsGJGE4HQj5O/GrC0Tvb/Zl1zdLBlurh7+lv/lwjtBXh5eP5yrbxIrYxcOcPkhzZAY7OW/9cLdptyNrt19Vl2I+d9P/WrC4kO5wO/Zy9777ZRdmfXS/R9nDxzkvb2oobk8bf+0QcOPx5zzmrTk2N0HSmNZJCRvh9cA73VJtRkb3/vNO/syRaE8fsGEiRvO5RIi3jkx+5MBcxIK7m6d5L3qTIZEpGtH5owdGZxemDDn/f6z96ZCa5APgrZhnnrcoC1XwmLl/3Ff5s9pDQG22FkwdAIHUY1rIhHOScA4oge0wAnYgbkQCVjuSW06NeEPg7+7WdlEGnK2TBrgdyifDUtWaFggTfVJmyd/NDGskHIzdOA0A0uXXJ87deGea/eaiNhQfWWxx8AD1+4Ejfdddzq1SRSrk4M+dw1KNyYHe83dFnO3KWfzu8/4nCnO+GbMV8u2xpYJIiG5Kwb2WH2ViJLh1HfDZm7U1TWTquLYb75wORh7fd4I//03Cptln4lISPaOcZ7LDqbXZW78sIdvgokYk0I/GzM7+m6ZRKSy3H1+/eckZF5d9vEHfV59w9XV5Y3Xerv2n5uQcXXOgKlbrt5DNxdnYAdmOjlqRsCsKuAWsOO1YjMJqHL/T4UfjAcnYJsh/dgBUx0YjUZ6oiGVPHYS1f4gQx4mIWUEDn312zvQ32s46v+BT3gezN6BRTVk5y8+3JybtHb8+1/q8oCUJSLWV0VMf3vQgUt3gsbN26LLqCdivTHS562JZ+6mBXnN23IhvYmIxuRVX7iuSjUmwzMX0ppyN7k+Mz2x7t7+BQuX77pUCUOfc1cM6rH6qogEPHzmFl19s1h1P/abkf0O3qmIXvbxrN03GmBQNnReGG4d/mKU39H0B+acLR/2mJMiSkJm1NhJi49llEqS+CAvfGZ//4TMK0uH+26Ou20wVBiMxura+qaKq1/39wvV58NUB5xtpXbdOLt8oijW1NQw9qUnzp5onj6pEQ8N1fbOaQGzqp+1jDSkEqcpRooWcAIvkfbM6fttZIYhZb/7u1PC7pUTIjbWVTU2ybYnHdVsKs8M/uq9T+bs1hdWGgy3Frr+z/f9jpaLRYf8P5u07ETu/cp7u71f/2h9alVqkNe8befvNonEeDNwhFtQamVKoJf/tgvpzTkb3br7XqnJ3zV7wYpdVyph1lHW9wN7BF0lRDSc/HbYrE1IwMW6b0a4HEoVxdR97/TpOSHkntFgrMyIXznx8y/XnCo3CSR344Cec24Am2bvmTx44qpLRqPx1GKXvv3nJFRUnls1wndjvNFoTP7xuwkjduRUXpkzwG93Sj4kGSYj8cPxCCjZD/6KvGPe8QqxoQRUxVTjNozGBkE7JwFToAghcXFxNgCNB/lYCFjWgEQkhsL4paNcXF1dv95xqarR3NxYe3y9Z9i1CgmXwsDVH6EcCWW31i4c5woPug5al4RjpIlo1AdNGtnfxeWDgXPiyohYf+/giu3R+gIzkWozDgb47L9Xk/Hj8q3RKQXNxUd9h2zYHKP7x/Pv7jt1uwpWySgK9//i4B1CSPX1vQGbom40Nkt1FTf3fDNDl0tlvLN28Idurm4url8sXBdTjmP4hKKjc0Zsz4DmgSgarn3v+amri5vPztD1szenVhNCskO/GuHi4vLp2BWXy4hYfWfzrI2nMophGhIn4MfKHbZ9yGw26/V6yxxo2/h46I5GgOq6EA9qdzlaoseK38kJuFu3bhQGqp7HgoQ/ZC0E5PqP2bh0Ni5d+kpe0BnoSt4pAVdlhlfkyXv4B6Yn4Wt4pcztk1fYwOkG8nKQ4NDGiNAJrNPF+MJKWDiaC8Kky0rTwNHXDGOv8VcIXZ4fTOWDtyA0oF45TLyQx1Wy1IBRRVOIEcM5pAX3cLAWgjycJ0SALcQh50HeL/CEQGrsNd4HrAqF0VInSVL37t2pQOyOKuTrIkJgf2jLBDBKfECwMnPiohX0gt5E563FY3QOAdKczHV0mQsaphwMBEenoqGS8bKwoDBWF4vv4ABJ+W36JEaAtqocQgsBs5BweUrlLUrk2I/YMucN6BbjglipoPCX+zptm7lxuW1cl1tp/kjgQhEFXGqQ6k8ikkFZCYsXfNvqQx2hQxHEgxOwKhRCSx0hJD4+np2rQjIuhF0QYEpvc2KXyHkkNkQAd8mgrg6L9hGbhqLou7lZdkGzcVj0FxtKxoN2HAKK2klBQUFhIc6iUCjZcUI9VsxO64JmKmEnj4UHf8iJEGCqZydOlLgumpTw3p8zbWJvhXwFM7lZ74BAR6PDT5yAu0hGscgV8qkmEu6cBMyUUVVFF3zQkko0kW9ULqROp/Px8WlT/6pcZi7e4yBAJLLtGZeoD6eajDUNxhqzudU20rScQ8+AINbW1rJ6gJ08ThT8Gc0hwFzQJpOpsbFRzgZaSIaTE3D37t1Z2WNK0oJeuIydQoASMLd+OgWiKl+mVm6p/u4RN+/D/bxTQ6ILdYmWpjC1eQ0Gg4uLi2XZ11ClrErgVS0U64JgfcCqFtdCOE7AFmDwU2dBICsrKyIiwrL+dZaUdfV0gE6VIepEJDfXH4j3C9Sv2Zd1+DyMwKKD5ERCCZi3wLpIdmElnRGwVswtJyfgls0YCMnYdyreL5B/ugwCq+P9AuN8Wz5dJuHOnMnjfAPj/VbH+QZeZB+/wI2/fC309wPj/AKLLibTutjU0Eg3Y2AMpJUamQnMT54AAboZA80DT/C6/V/RPAFDg5jOw4TpCKSpui7CzfuI64TD+Dni5g2uKtcJEf28b6zZVxSbxD9dAgFdUpEuEVIKJ3BeSC95BtA4AvmxiQW6xAJdUqH8Ac2u/+Vr63/52olPv77kv44WeVrqj7h5Q22AH07A9mcXu8XYQgHK5DStqNspCBgbPKBsQkyGmiP/+rLRWNNorDEpn0ZDddLykPTQaLtlCB6RYxGIj4/39/enhZC5pxwrEo/dKgjgPGBQLB31fHyo79ZnXWhJNzc0xvkG5h2Lkwu+ocZkqDZVVjcaarY869IyH90qcvBA1ISApcmrrfKueQKGbEDXKMLhGXWGqqP9JjIdyHMTRJKyJjyNE7CayoxNZXnoICytNIptiozWAydEMhlq8k9e3tHddeuzrvfj9VDusQ4gkhTvF1ikS4JLhaFpVbD1WVfaQ6z15HP5H4oAI2DeB/xQfGx8UxkEKRBiMtYcdp1gScD0/MaafZyAbawGFQWv1+vXr19PBbLMDCoSkYvyZAgQ6XA/73i/1SLO+8XFOGS6hYV3fANxUDTonM0KJiLZ9qwrVBJPFiN/S/UIsDJOCVj18rYI6AwWsGVpMxlrjrjJBNxSAgnRcwu4Reld4oyWSZpUVj67RMqdO5F0qDPTqHwir4oF47BiEluWyFIe2/IMnZLk3NB03dQpeiaxeNDR75qAQ/MELC+Rr2gACLifd6v2L/50Y0047wPWRI60lpA0R9DQLM+tFT4PxyEIoLcLGLY9yxIixfkGFsG04Fa/C4RsBwuYm8AO0ZidIqVlHLsjIEZ2YqfonzQa7ROwspI+VYDJ8EgXNCfgJ80k2nvvoS5o7SWDS9wOgTb9uyJbggFXnZT7gJFrWY1MCJH7gLkPuh2eTnODqZuyLydge2mWNoWVLXFMxpoI2QVN5+TLZY67oO2lj5+JB/f9bcad+6iCJCKJZslslgR8k+4NCD+JpFkgTbLHEbr54H+z1CQQy9UHoZ9BlMwiEQiRBOz4k4iki5GXoqTFksokSkR+QJKIoIzbeexKWRCaRRAS9xuEXGf+maTyn22EAIBPM4RiBqMyJYlawEksWswz8Oi2Z1ygB/ixdc1C4CeaQADaYTgZddOmTRs3brQs9SqXX/MWcBt8kYC929yUJIkTcHtMHHWH7vALyxnBJnKsu0CpTEU6qJWOsaH9+HRbXxh2Aw0tOOT+fXhWuYYCKMKa/ISQuLg4Og2JXsoptXiW3sfWwGPXyvC6RPcKptHzCt1RWahNvIxb0QXdQsDsMSBgfjgvAtTeJYQE4dGq1Ks71ZyA1a0fJ5QOeAxbq4Sg2UqtGbRfFdNWImjRUnJmDCsXK5wJKihjYLG3B/gYHpaUL0qQ9IWW0thCwPSeAAI8NoviOyAZLoUIbQK0wpxQQ5pLEidgzanMRgIfwqOlyNsoGusFywnYeljykB4LAbBfRZm/aEmhtRxi4QAAIABJREFU35TZKLMigbZmUdn2lekYfqNLAlPqlYucZXitz0E0rKcxeosYO0LAslhoa6MnWnysFPOHbIwAJ2AbA6z24FuXdfBp8T5gx+iMu6Adg/vjx4rMKYiKMxnJDEnUrLiTZWaVwJ9MTdsWA1dhZpmA8ZK6nak3GgsekdLT08PDw9lwDFo+kYCVoioHDpcdkh0aD5SAqaf88V/mT9oMAU7ANoNWGwErpbpjxVkNaeMWsBq00JVkgDJCPdBAlmLprbULvFxdXFxcXF1c3vvwE8+91yppcaK2Lh1vQ++ID055u7m4uri6jpp5OPE+dPnej/QdvDYdXNnApOjThlBjYmLofsD0ReWbBkmIWLTP/4sfU+Xbj4s+9l0rQdD4HvdV/pxNEeAEbFN4NRE4LczMBa0JmSVJ4gSsFU05jZy0pIg4mFkkYnN9XZXRYDQajNl7PF/4x+KUZmr4ysOpkFPBAjYnrX/5j1NPVRorjcWXj3w3YMSMS5kVYu6Wd7rNuE7fgIBlCzlG12oUNI1S6WwmhGQtH9Qj+ArthH5cC5jkbRr+8pLbzHaH4OjIbadRjVYTwglYq5qzttx8KUprI9rB8LgLuoOAOeRxszIHCPtQCTGT5saaiM+ee2FNAswmaqqtLDfUNIpNoqj4pZv0S9z+6Rd+TyDNZiKQmsyds2atirjdmL3FtbuPzlicnZtTXF7dJMAgKdFcV5yXm5l7r7ymTkDjuLnBUJSbl5ubc7/C2AzjrvJWDOoRdFUiTQ2lJQWFldWCKJobDIV5eXl5+WXG+kbRLDQZSgoNJuBok/FBZW1j7f3YeS6/m3S2uLIRQhDQNOd9wA7JP20j5QTcFpEudq20sMlOPOilJjDgFrAm1OTMQmJpMSWt7v/ncVGlcCHl6Nav3B1VUWuWqK+aECHtR5c3ph+4VwG2Lvb2UlNXyN367r+7+6+c4vpG74/GfXf5Xr1AajMvfTfyFZe3Xx00bXVkVnUDIRVxG73f6+vq+s5rwyZvvHavXiS5ywf2CI6rz7+4e8ynH3luuFTXVB63acJ7r7q4vNFv5NzdqRWNYt7Gj3rOTxEJqbi6bPjXIcnHV7z5h2f/7z98OmtTahW0EiSRzytVS7bkBKwWTThODsbB7MRxsnQgZk7AHQCLP2pVBORqE6YV1SXPf9t1bbrsQAZPMs4okl3KRBTS9rt+8d3F4moigukJvmZ4QBRzt7zx73+cGZUnllxe9LnPugsZjVUXJv/jjcC4/JNhS2eOnrblbEZT/vb3+n52PE8kDYVndkVfznogiDkrPvrtvA2R876ase5Eam2zIFb9+Pnz70cWiELl9Xke3mtjc5uyNn/Yc14SEcXKhGXD54Sm3BOygj/qNT9FFOTR1+AjtyoePLAnRYAT8JMi54TvcQJ2pFK5C9qR6HcsboWACalMCO47eG0xTqyl9IpDqpCPcUy0kHbA5d1ZEfkGi35ceFDI2fRuN8+4WiIak4O85m27cNeUs+WN/+vF1z744KWXfv/2H96ZuzcpN+zT33vsKMLuYZyeIIokN8DlWZeRC7/0m38stRJaAAkBL7uszQbruuTI3JHzw2/XZWz8oOe8FFEUK658M/zr3Sn5YtaaD3vOS6ZTqLANQHgfcMc0bqunOQHbClmNhMvawmfOnDl9+jTlYE3Izi1gTajJWYWklCvd2DXS7Zvz6F2WJEkkkoDcC+tyyPZuXeLct9+Ze6RAIeCyc+sXBIYl12ducO3umygSYkwJGue/NeZuY+6md/9j+KSg4OEffxwTczXzQU1N9Fc9PHYW0vW35HlNud988PycAzf2rZq/YmussVkQU1e6/OPbVIi2YM/kL785fKchc9OHSMCk4sqy4bNC9flC1pqPes7TwzN0DhXOZXZWzWgqXZyANaUu6wtL16EkhLBBWNaPwzYhcgK2Da481EcjQNun8qLPQGaV0fMHTNmbQ21UZSiz3IpVHjZnhn/V87cfhGZLhDSknV094J3hYVfzzbkbXLvNuEYk0ZAS5AUE3Czc/cbl10FXmusfJKwcuyQkLqup6fi43/1l43UiGm+uHPPVtweSTULO8o96BF8VTZmnxk1ddjqzXDCf8fzNn3akiEL++S/fn7AhMbdZOD3uN3/ekULKroV88ubnG5PzzVmBA3736YkSkAgWhGat7kenlP9iHwQ4AdsHZ9XGotQSQMBBQUH0UrXSWgrGCdgSDX5uFwTo0s4SNSQlQjL3TvTfcaWMVqNEkjKOLZ0TvLesphntXzoQGgYdm6/90LNnj549evVyHbUrvgBcx/lhI3ovuyUSsSp12+wfwi5nmQlpqD7p1euFXj1f99kcU9wAPFlyLei9nj179eg1eunhXINEyL2N497ZniKKpPrihilv+YZVN5iLE9a49erRq+d/+2y+UGGChSavBA/u0aPnW2O9Jg397vjtIkkqWD34hXeHTYjJob5x3JjBLoDxSBgCct3K8goucMZusu0I26xvxteCZgA65Ykl49JzrTSPOQE7ZYbs6okyGAyZmZm0EGqrQHZ1zf1c+s244QZ6INiaKJLigZTifQML6X7ArSeIcQL+OVy1/TvNADQN2irvnIC1nfO49A9FQPfwhTj4qOWHoqWxm0oNywi4pXs/jhFw6zRxAm6Nh7Nd0SwhSVIKHuxS/enkBKx+HXEJO4wAJeA2a0FrxSvV4dR2sRfYGmm4FkoLDcM2lH6BRbokuuuGJSqcgC3RcL5zxrhsEJZWCjsnYOfLjTxFktFozMrKokAoBhP85dBoHYGzI+ZHD/GhOqXj0Vv0K0kX/VYXxeJ+wK1VzQlY63r/aflZHqAE/NMPq+pXTsCqUgcXxmoI0DJJg2Pl02qh84AchICpqrbmXsnW51xjpywHtdJVUfBbICIOwuIE7CDdOC5aVsAbGxtNJhPfjtBhquALcTgMejVF3NjYWFlZSSVihVNNAnJZnhQBnDouSiTz8LnQFwaHvjCk5OqtmvwSutfkRegDTqLEbBkBt4At0XDKc8tiTs81kcwuZAGnhkazyQv8xLkRgD5gXx9Io1wWlQU8lF0gnDv5zpw6VtFij4JIyKkR845+OLVQl1ikSzz5ydeUgGE1F4uDE7AFGE54yjJFAR5yoddCQrsQAZ8eOV+/Jpx/ugICh6ctC3D9VE5pMFe68yCQgkX4xpp9eviEw2Vw+PXlO9c9/er6p19d9/Sr8jSkVvwrcQLWAhk9uYwiHnQlLL4Qx5Pj2Pk3f8IFfeGrZWmh0fzTFRBID41OD41OC2n13RUS3gXSeCw1JCo99FgqluXU0Ojtv+63+T/eTg+NTg2JOvrBlAI6D7h1VcIJuDUeznZFx1daLkWplRGXXcgCTguNdrZ8x9PzaASYG4q5px79LP9FMwjQFUzpUmQ31h844jYhO1J3P15PtXzRL5ASMF8JSzMataqg3AVtVTg7HthPWMCcgDsOp4bfaEPAlmvlaDhVXV50IkkmY+2WZ122PeuqDwozGWoEM2zagZODJVyIAwZhwfqlFge3gC3AcMJTGA6v7B3OrGFNpJNbwJpQExeyYwhYroTFluPoWBD8aVUicOTd8WF9PqcVLlS51BaW5L8yAePgO0vxOQFbouGU57TBXY2HVvzPkiRxAnbK3NjVE8UJ2GlzAN0tC80dmX/pJs+4LNYln8D72AfMR0E7bQb4yYTxlbB+Eh7b/8hd0LbHWAMxZGVlRUREWNq+zCOtAem5iD+BAEwok2eXIeeCrxnvwe1Y31V0FHSbALgF3AYQJ7tkJi8nYAdrlhOwgxWgjugp3bb/Vod0XAorI0DnPUsS9AHDWtDtDk7A7SBxqhuspN+5cyc1NVVDrW3ugnaqjMgTY4kAK5bsxPJXfu40CHACdhpVPnFCWBlnJ08clD1f5ARsT7R5XHZCID4+3t/fnxVFdmKn6Hk09kWAE7B98VZ1bNoq7JyAVZ2ZuHBPhsBDtyN8sqD4W+pHgBOw+nVkUwkZ6QYHB9OVsGwanRUD5wRsRTB5UGpB4Pbt2zt27GDFUhRFtUjG5bABApyAbQCqloJkk4D5ICwHq40PwnKwAtQUPSNgNkhSTdJxWayGACdgq0Gp8YBiY2N1Oh0t+JpICreANaEmLmTHEGAlkHNwx4DT5tOcgLWpN6tJbbnOHSvyVgvdlgFxArYlujxsByGQmJi4cuVKtigd42MHicOjtS0CnIBti6/qQ7cs4JyAHaku7oJ2JPqqidtyJSxWILkjWjX6sbIgnICtDKjWgmMEvAkPdqn+dHALWP064hJ2GIGrV68uXbqUvsYJuMPwae0FTsBa05iV5WVlnA7CsnLotgyOE7At0eVhOw4By1YwK5+OE4fHbEMEOAHbEFwtBM0KeDQedA1aLQjON2PQhJa4kB1HoD0BdzwM/oY2EOAErA092VJKxsE0Eq30N3EL2JaZgoftIATS09PDw8NZUbQkYwdJxKO1IQKcgG0IrkaCtiRgDZV3zRMwkYhAYHMyCUtho6E60s2bSKJZMuNWoXBbIpJ+zb47oUcF2Ki7VdtIFAUB9hIVcUdRiYjwMD+0jkCbQVhaTw6X/6cRECUiYLnF/YATsYgTs1ykYa+krc+40Prhp8Phv2oUAREPQkhYWNjevXs5AdtPjxRrIFURdikzGWoigIDxmhZECYrnjeCwtJBjcEOALyRseVczERgcXsfbSMb2E5/HZBMEOAHbBFa1BkorAYnQ3ZCQgLH1jfeBh7c950Y3D1ZrCrhcnUKAZgBCSBAecn7oVJB2eln7FjDyJi1uEpHoNCTkYhG3CUVeFUnKmrDU0GggXkq+IhKuhGwMRNxSXgkR7IQ9j8ZmCLACyU5sFhUP2PEIsOJ70TewQAcETD1dzDDa9oyLXPIdLyyXwIYI7MSDE7ANIW4TNDieadmCnbmlRkPNkX7eQMDoTAbnNLSAhRvB4WmhUXJ1THfwBqtZYV7gX0GEcgxnbaLgl5pDgPEuPeFrQWtOgx0SWNYyIXE+q2A/YNm31ZILdjznJjvJOhQuf1gjCLRoGs/4KGg76k0pbLSPp9FQvedPHilr9unhE65fE4bf+04Mn6kQMF2XHxQlErqEGeVd6pbmBGxH3dksqoKCAp1OR8shK5w2i40H7GAEqIpFQuJ8Ay9OW3ljTfiN4HD9mvAba8L1weE31uzb/J9vY3vbwXLy6G2EAFTmMBAIDhtFYaNgNe+CxtYuOpvRehWamlNDotNCo1JDolJDo93+3/9KC4lOC4lKC402ZuWjjUvVpPA2qgy+wFSWTWMbYc2DtRsCbfqAqcrtFjuPyN4IKEM+Sq7dScfynrTxwNgX304NjU4NiU4PjYbuJzZU2t7C8fjsgQAt42fw0BANOw0BU/yh/1Y+g7FVpFu3Z4i5+s6J7z/q3btP76ErTqQ1CbTfl47aEpC6sT+47t7J9Rt2HU2p01obyh65W2txcALWmsY6Ja9c5OEPbUWTCoPB1cWVtqglHGEp0BLfqXj4y2pHgG9HaHcNYcO2pQTipCORiAIxi0Ts3q1bxb29k//Zb89VY2rEgjf+7nW0ohqMX+RcmH0EFjRydm32/gWLV+y6XA13m0UYn4XBEBivJUlSM2kyw2wlCWc3yG+ZIRYzZXF0eEpmSTTjEBDshRZJU/mZtSsXLz/+AOKSJByrDT9pzFNid7V2LsLm5ub6+vo2LmgNtYs7l/ou9zYSLdYBNOlEMhiNrq6uMhCKtwvKKT+cEQFWtDkBq0S98nAqQkjRpTVe/b+92UQk07WA98ZuuVELgySb6g2G8vompFYqcgsBSwKUWFGQRFEwGUuL7uVm5eUVVTdDCReFxsoHRXl5uXnl1YaSgppGkQiNlSVFeXAU1zUJjVVGg6G+mRDRXFOcV1Fbk7d3ru9k39C7VQ1mecYybS3wzmabZ5WWZplyZvMoeQSqQYDqvE0jTDXScUGsjIBSxFv+WjkC2wSnfRf0w3DBkc+4ugYRaw239izyDNoVcXT7ynEL9mTXNwlEMOQk7NuzNjG/vqVNbEHAODyaEKnhfuI+/9GfDR3o7v7mh3P23jGKDfeT9s4f89nQQe4f+s316t9ny/XGosQwv88/GzrIw+PNQYv2XDy6eem8xdElRBTu7XjrFxOjso+M+9uLf/rrkKCTd+phboQAH8VN/jDZ+T0rIFBeXn7r1q2WsqicWSFoHoSmEKCapzSsKcG5sE+IgFLWteHtcFoCRpKTNm3aXF99c9+3s6d5e3tPmDbrmwMZjU1MQzhdWFGzBQGDU1oUSVP+fv8pc76NLG0gzWkr3vr9pIulOdsWTZoTdLKiQSqN9Xv9hb5brhTs8588b/35Bw3EnPZDvz+P+WbV0nkB0Q8IEe7tfOMXEy43lh37Yan/kugHOM1JdnfLtYI2sogCkJb+sj5gSwNISwngsnYOAZPJdOjQIVbS2UnnQuVvqxQB5oJOSUlJTk6W61eVCttKLOclYFRC92e6Fyet+eKf0y7cb6gvOj759RHb74ILGg7sucVBG4iIBQHT34WKWytnL/jhkL4eepQTF77xyvZTV2ZNn7by+J1GcEYn+bv12XT29srZCzeeSauHCcSJ89/++5fTl80NiHogEjFv55u/mHClsezYyqX+AdElYPtC1y9a5+Ah54tetsqJVr2gBMzYl05RsGoMPDBVI2A0Gl1cYPENywkqrJpWtehcuI4jwOYgsT7gjofhmDeclIBldiXdnulWeHHFFy6BaTAD6cYKty/WJtfAmhs4HkNmYYp8OwIm1ZmbfBes3JtQA8Oxzs/440dHEpIWfD3nh+OpJvAjn5v8cu8tursbfResjb5ZAwQcM+MlNx//pXMCokoIIfm73nhqwuXGB8cpAdNpahKdCYVkzAdi2SzP19bWFhUV0fqXftssKh6wGhGgBMxaYDwPqFFJ1pOJlfTg4OCgoCANqds5CZiNVTZUGY0FF+YMfWdDfHmJ7od//WXsoYp6WVswCspiJJQlAWPOIKQ4YvHoSbN3F9YQ87mpv+8xP6X5/uEloyfP2VNQLWVuee83L7yyNfHB0QDPyQFRhdVEOD/tr/+YufNwwKQx3958IOXu+ezfnpp4uaH0+Irpk2bsyK0V6SrUdPUtkVvA1it+jwqJFUtu+jwKIme9Twipqamx1LvlubOmmqfLZDI1NoKDUivqdk4CJpIooMsX9NBcfTNy8du9XujR02XRkRsmM9BucerJ4BWzYzNq8UlcOLb2XlSgd99ePXv1/EOPnj3+3Of1H86VEGPy2knuL/Z84Q89Pj5QgNsrGfVwp0ePP/n7Tn/RK/q+WTQmLx898MWevV7o8cmxQlJz78oCz//u0bPH0NU/zO4xP5k0ZcZsG/tWL8/A05Uw5Ivuu0SJn/cB26rGaGhoqKiooIWQlkatFEhbIdLFwmVKb3PSxWDoKskVcHUHmlqmcU0k3lkJWNbCsWPH0BtNh1sRIgkiGqJAgHDQ+yJdBVqEWbrsUNaFVuxkCMdck3dTfzOjxCSIwoPtn/5tyvlyXM8Sd1PCSb5s+hPsrwSDncHzTIc9g/dZlOhKIfgYd0HbrIiwQVhMnfTEZhHygNWFQFNTU1xcnKX21SUfl8aqCLDSnY0Hu7RqJDYJzJkJWCKkW/duciGkQ66IhLQoMKKlhAl7CisLcqBfmq2nRelXebypIn7HsnGe3l8vClg02t17eWwJMjjTN7A7MK68EROdbUQ3XlLW/hCUNUC4SWaTDE0DbTMIS84DLXPObBg1D1oNCPA+YDVowW4ysBqYDcLSSvXqnASMgy+AcoGAqQ1KRz2DEUrNUsqpeKEsboWLV8r3sRdZsYiVZbNEIjaWZl44tm9XyI6QkBO5NXQhLbCNwdRFbqc+ZpzGJLCtHnD2EXT+SviPxsHpwHbls6Sk5Nq1azR8xr5aKZO2g6XrhGzElbCoxlkG6DrJ72opZSqmBKyh5DspAaPfmRDp1q0bMNAKfcFo2lKLl33TlTGQP3FAFj1DI1UZJw3UivaxrGQ6iErAgdREFM1oU8uU2spwpmOuYPovnXsEvmhkYvawhvKJ9kSl6qJyy6rjTR7tqfEJJRYEISsri+mdnTxhcPw1dSPA9FtaWlpWVkZHv6tbZFk65yRgXB9alIDw8IBOXgFtUzBU6T2ckis7pqGlDH7jZhi8hc1mGB+FPEzpU5LQcoafwOqlo6egSxmepj5majPT2b2iBNFgn7JoVnzOeAMpGheE5vOA7VdAZI3bL0Iek1oQYKqn1rBaxOJyWBsBjepX8wRMCxjlS+RUPJXvkrz8e0jGdEcFXHWDDo6SCRWMUTRIqY3bws24SQOsmwGDqcB0BUO3zUFgGwZKx0Dv8I9u1gDELK+yBSSNAeBYLJmMcT8HYPQ2AfJLayGg0+l8fX2VXMBxthaumglHFMWSEpiNb3loRnouaAcRYFquwoNedjAMxzzuDAQMY5hl6oTBVPSg1Nq9e3doGT26BgbTWBSQRmWt2YIWlaBlvmaXjtF5F4i1zSjoLpBinsRWCFiuhEWLm0YtpFap4hePQEDEgxDCF+J4BEK2u82KF56YG0wJS7ZcW7r12pItCQFbhv37C9eXbk1YAp9rj/5Y/mp5/hOvdPQnQ1oebQcoNrctiN52KGss5Ly8vJMnT7KsoTHpubidRoARsOViWJ0OlQegUgRo64oScHBwMC34KpW1tVjat4BbBj5B32yjsSbsxY/TQqPTQqNTQ6PSQqPTQ4+lhUSfHrXgwoRv6P1W3yHwDP2kh0anh0SnhciX7H7nT04Mm5UTqcMOZ8VUxzzSWhf8ymoIMOqlJ6LYrv/AalHxgNSIgMlkOnnyJGNfDY3KUSOa2pHpDh6cgO2nMdl7TMc1E6nRUH3EzZvVv3TAsUSkG2vC00Oi24uF84fYACvwZNuia/ba0q2UgHFAtsXIr/YC8TvWQIBlAHZijVB5GJpBgOmdnvAWmGY090SC0mqcKV1D7S3NW8Aw9ImufIGjrUzGmkjX/7+9s/mN6jrjsNT+AdBNF91V6jZVPrqMVEilrqoqdMPXqkIlWwTtJiwa1IUrFjaLViICaldxgEpJCBNHDq0a1CLVqDRxiRVIsNtJSpCCCTh2TIYGz532njPzcrgMNp6598553/uMLPvO+N5z3vf5nXN/9+PcM7vT+Tacq/oneFvN5OKh45fH3lhN3LScziCs1dbr5X/nX3hxLj0Dvnf6u8pt6V4qYJv7CchEHP5j3zPvX4V3VSGA+lVQWqnK+g3YHe04E05HYDVuLZ7avDv10vY5capLM0nSM+CxrmfA6bqL9Wu3P02nDvav3Nvr+QMvzp162zm892Bv9rnXQ4FtAplBWAXJCu5oCchEHJ0+/fBxmNHmQGDrJ8BMWOtn1v8WcuqaJHcWll7f/Jwbbex+ueeIkiSZHhm/NFbzV6TT4U/u5/o7l2ZPvf2vU2ffeHbvP4Z+J1Nx9B9RpoT0EvTrZ9N9gXsCqX0hOrMSb/MjMDMzc/ToUbkFyF44P7Q6SpJBWBx76RCsvyhliDsG3B/Ivre+s7D02ubdDxYzfejl98dqK+kXI6Q3eW9eqruh0Yf/duDw1AuH0yE6/kzZ9dcHN+/zk/NiwG0T9gcAfZbK5g8lII6bWXjoBvzDFoFGozE6OiqDY6UZ2MqSbNoERN8p9/JvVdAxcQk6IL26Absr080//fSXf/35yPtjtVtXPna26+8Up48LtwdtBQXmsugHYUkrSZ9b5lU8gXvAO0vF10kNsRCQvXBH/PRvLMERR94EQpVF+rwryb+8ChnwpbHa27t/deLxbb/52lNHvvH9E09sP/7E9pNP7Tz5eLpw4skdx5/cfuJJ9+ET20/m+nPsWz/0l6DdVxa2mwc7g/ybc6fECxcuHDx4UGmf7CTB3xwIyL4Y982BpoYipNdrCLZVJQMerb2y6We//fr3xr7zY/99gWmfdDZ4T7NiXPG+8v21bhWtQ22QjIJWK10+gWfuAd/rgPkUTylxEZCjK5kJK674Hh5NhQz4/bGaH2a1ePXT33/7R+d+MfJ5/dpC/Vpyt/O0cHsw18Np9fof6f/3LfRaGtutSWBqaurAgQNCm8dA1yRmbAVvwO2hHfKcv7EkSadDwD90miTJ8PAwM2F1qAzi7yr3gC+N1vyTuO5369+1v7yxZe/Es3tn//DHj89MuZ21+wqGAm4UyTDt4FFgf+49CEaVqVMMWA6QK5N61RNdXl7ev39/qHu4XHU6dvOv1WqnT5/2HV9FlhU6A740lhqw/xFHbDab7/x69PwLhz888VbaRd1cGfkr16k3Ld+FkH8VlBgQkB6IBwdUKrQoumceRasQgiql2p52yaUcSh8/g4oZ8AOCuKeSkv8u3f7Pn//e3msXcxv4gZr5oEACly9fHh8f9yc9ujpkgVCqVLSInlmoEoMK5dredbuMRXEV+VfdgJNW+qW+mZcK5QhyFQJdZ8LiIuQqxIz9a2lpadeuXWG/NpYg6YQEvNCtVmvcveRtuE6cy1U34FSVcCB0q3U3TqGIaj0EwlHQvjfivuvhp35dGYQlmdAABIXhBT8TlqIEq27A6fNIrmumt2b9YgGDsBQ1CDOhttV0+fhldsFmxF0zkcXFxW3btonusrDmhqygkYDoe8y9/I1/FYlU3YBTkTpfUpQ+jeSeSFKhHEGuTsD3Sb9OuLz6VvzXGAGRXhaMJUg6noDXVw6yZSFyPhhweubrHwROJXSnwZFrRnhrEqjX65OTk361TM9cc1tWsERA1NeyR7YEv8xcRGgZ915m7T3XhQHfM+D2M0Jcgu65NUWzYWYQVjRxEUhJBG7fvj00NCQ7Zb9QUt1UUzqBpnslSXLmzJm33kofKNVyvIUBl95YqLB4Ahhw8YyjrqHrVJRRR0xwfRAIZ8IaHh7GgPtg2d+mq82ENVbrr2y2VkPA90D5rSZuAs2JAKOgcwKprBi+D3jAgmHAAxYgjurFev0Cc0HHIUt5UWQagJYLkuUnJ6jiAAAKY0lEQVQBslVTRm5GQQ9MXgx4YOhjqnh+fv7ixYsyHMP3z5gCJJbCCYQ7ZY7ACsc90ArS51d0fuUG94AH2nCovBgCmXvAGHAxmOMttdFojI6Ohh4cb6xElgcBr/WUeym64IEB5yE+ZURGAAOOTJCyw3lwEFbZEVDfIAhwD7hs6m7yDHf1wU1l1bi1+Nrm3enRkH+2t9n+aoV/Hjp+mUFYZYszsPr+PxXw1atXM5egFR0XDwyclYoXFhY2bdokZ8BW0iKP7gSka2PA3QEV/qn7kr+VVis14GeeazXTGTXkywdbSTI98nL6dYS8qkTA73/FhquUOrl2ZpbtTDErjQE0JgmEB1uKtNZ/CVq+2ted9X55a/GVZ9wZsLNkp0Q62eT0IQzYZL/rntQXX3zxySefSJ+Uhe5r86ldArIvlpMku7mSWUpAV2dXb8Apbne12X+twpcLS696A06VSH/8VM/vcgZcpe4p94DVdcgqqVRgrl999dW5c+dkXywLBVZJ0YMjIEdXc3Nzs7OzXu7BhbOOmk0YsOPddEZ859bSq+4esH8rHe9dzoDX0SrUr+oNOHRf6aLqcyOBRyAQDsKSB1RoA49ATuUqIrHcA9aShh0D9pce7iwsHfnmDya27JvYsnfiJ/vefHbvm1v2vbll3/HvbmUQlpZG2X+cN27ceO+99+Twiz1v/0h1lSAzYdEGdAnXW7Sishiwli5vwIDlon96wbm5sjI//UHn58P56Q+uT39ww33S+Ozz3tRlK6UEpFtq6Y1KOUcY9srKypUrV0Ldw+UIAyakXAjMz89fv37dd/xcCiy6EPUG3BWQ/3IM/y86XldEtj/M9MDMW9u5k53cevAoOA4z3yRWVlZkP6+rs9s0YOl4mfkIzTdEEvQEZBBWuPOVLgol8wTu3r3rz4ClAZhPucoJiunOu5e8jZ+JcQPesGGD9ED2v/E3x7wi7DoIiwaQF974y+EecPwa5RihOC73gHOk2ldRXpKNGzeKNn0Vx8aqCNTr9cnJSR8yR2CqpMsnWJkJSy5Hc/iVD9koS5E+7g04yhi7B2X2DNhLMjExIdrQA7s3AaOfet19ctIGjOZKWlkCPAecJWL6vXTw2dnZubk5f9SlImOzBhwe+Yo8KiQhyFwIPGjAuRRLIboISDOQBV3xE+0jEsjs5LWcblk2YK+cV4Lu94jt2MZqZ8+e3bNnT9gAbORFFuslkNkvr3dz1ldEQHbyshB/8DYN2E+M0mq1GIQVfxMsIsLMKOgiqqDMmAmEM2HhwTErlUts/rnTJElGRkaGh4cx4Fyo9lWI1wAD7gui2o1nZmaOHDnCnletgP0GLgYc3orqt1C2j5WAXOZkFHQsEvmd79DQkOyFtdwViIWg5jhC0f2y5myIfd0EGo3G6OiouK+iUTnrTpUNAgJT7qWoy9u8BB3uf6UTYsBBQzW+GDYARb3RuColppdpAM1ms8TKqapsAulX4jXdl+I54RUdb2HAZbcV6iuBwIULFw4ePBgee3H4VQL2qKrIeHBUsRFMvgRCrfMtuejSbBqwp9ZsNjds2FA0QcqPkEBmEBbuG6FGhYYkE3HIrrnQ6ig8EgJyDziSeNYMw6YB+17XarU2btzoEcgnaxJhBQMEup4BY8MGlH3EFGQQFh3/EYmpXk26thiwfBJ5XpYNOEmSnTt3cggceRMsIjwRPbNQRF2UGSGB5eXl/fv3+71w2AYiDJWQ+icgEtfcy7/tv9gSSrBpwJmbf4r0KEHy6lQh3VIWqpM7mUqvF/W1nBWhXQ8EQpVF+h7KKXkTmwYcilEyUKqLgcDMzMzRo0fDZqCoT8YA0EwMojvua0bT1RORXr/6apH817gBP/bYY6IHPTCSNldCGDIIK7wWUkK9VBEJgcXFxa1bt4Z9X5w4kggJI0cCsm8/duyYHHnnWH5xRVk2YD8IK+yExXGk5KgIyFzQXn0eA41KnRKCCb8PWCamLaFeqhgIAXkIeHh4eGRkZCAx9FapZQNOkuTpp5/2XDj+7a19qN6KYy/V8vUT/NLS0q5du+TESNHMDP1kzbbj4+MvvfSSor29cQOWHqhIEnpRLgRC95VmkEvJFBI/gVB9Hy1tIH7Veo4wlFuWey6tzA3tG7DoQQ8ss2ENtq56vT45ORlKj/qDVaTk2sO5CUuumurKJ5Dp6f5t+WH0UKNNA5ahNzt27Ai16QEQm2gkIIOwvO8q6pAaaUcY8/Ly8vPPPy+6c/gVoUY5hiQ7+dOnT9dqNdE9xyoKKsqmAYseH330UUHgKDZmAo1G4+bNm9IPZSHmmIktRwIrKyvXrl2T/QAGnCPbOIvyWvuZsOKMsGtUxg3Y58z+t6v2tj8U0WXBdr5k15WAV59h8F3hWPrQC62us9s0YN+wRBJL7Yxc1kVA2oC6nrmuNFm5K4FQ9HC568p8qJ1A2Nm15GLfgOV+sBZJiDMXApkdbuZtLlVQSOQERHRZiDxgwuuHgFdZfvdTVGnbWjZggUj3ExTVWciInnlbHQ5VzlRE5x5wFZpBKLcWxSthwFVofOQIAQhAAAK6CGDAuvQiWghAAAIQMEIAAzYiJGlAAAIQgIAuAhiwLr2IFgIQgAAEjBDAgI0ISRoQgAAEIKCLAAasSy+ihQAEIAABIwQwYCNCkgYEIAABCOgigAHr0otoIQABCEDACAEM2IiQpAEBCEAAAroIYMC69CJaCEAAAhAwQgADNiIkaUAAAhCAgC4CGLAuvYgWAhCAAASMEMCAjQhJGhCAAAQgoIsABqxLL6KFAAQgAAEjBDBgI0KSBgQgAAEI6CKAAevSi2ghAAEIQMAIAQzYiJCkAQEIQAACughgwLr0IloIQAACEDBCAAM2IiRpQAACEICALgIYsC69iBYCEIAABIwQwICNCEkaEIAABCCgiwAGrEsvooUABCAAASMEMGAjQpIGBCAAAQjoIoAB69KLaCEAAQhAwAgBDNiIkKQBAQhAAAK6CGDAuvQiWghAAAIQMEIAAzYiJGlAAAIQgIAuAhiwLr2IFgIQgAAEjBDAgI0ISRoQgAAEIKCLAAasSy+ihQAEIAABIwQwYCNCkgYEIAABCOgigAHr0otoIQABCEDACAEM2IiQpAEBCEAAAroIYMC69CJaCEAAAhAwQgADNiIkaUAAAhCAgC4CGLAuvYgWAhCAAASMEMCAjQhJGhCAAAQgoIsABqxLL6KFAAQgAAEjBDBgI0KSBgQgAAEI6CKAAevSi2ghAAEIQMAIAQzYiJCkAQEIQAACughgwLr0IloIQAACEDBCAAM2IiRpQAACEICALgIYsC69iBYCEIAABIwQwICNCEkaEIAABCCgiwAGrEsvooUABCAAASMEMGAjQpIGBCAAAQjoIoAB69KLaCEAAQhAwAgBDNiIkKQBAQhAAAK6CGDAuvQiWghAAAIQMEIAAzYiJGlAAAIQgIAuAhiwLr2IFgIQgAAEjBDAgI0ISRoQgAAEIKCLAAasSy+ihQAEIAABIwQwYCNCkgYEIAABCOgigAHr0otoIQABCEDACAEM2IiQpAEBCEAAAroI/A9U5Rxg0OtEtAAAAABJRU5ErkJggg==;" vertex="1" parent="1">
          <mxGeometry x="130" y="50" width="640" height="456" as="geometry" />
        </mxCell>
        <mxCell id="y9x0vxbRjsKLianGs3dF-2" value="Customer" style="rounded=0;whiteSpace=wrap;html=1;" vertex="1" parent="1">
          <mxGeometry x="150" y="90" width="120" height="40" as="geometry" />
        </mxCell>
        <mxCell id="y9x0vxbRjsKLianGs3dF-3" value="Shopping cart" style="rounded=0;whiteSpace=wrap;html=1;" vertex="1" parent="1">
          <mxGeometry x="310" y="90" width="120" height="40" as="geometry" />
        </mxCell>
        <mxCell id="y9x0vxbRjsKLianGs3dF-4" value="Process order" style="rounded=0;whiteSpace=wrap;html=1;" vertex="1" parent="1">
          <mxGeometry x="490" y="90" width="120" height="40" as="geometry" />
        </mxCell>
        <mxCell id="y9x0vxbRjsKLianGs3dF-5" value="Order Summary" style="rounded=0;whiteSpace=wrap;html=1;" vertex="1" parent="1">
          <mxGeometry x="650" y="90" width="120" height="40" as="geometry" />
        </mxCell>
      </root>
    </mxGraphModel>
  </diagram>
</mxfile>
